<svg width="24" height="24" viewBox="0 0 24 24" fill="none" xmlns="http://www.w3.org/2000/svg">
<rect x="21.5" y="8.99658" width="2" height="5.00366" fill="#1B1B1B"/>
<path fill-rule="evenodd" clip-rule="evenodd" d="M5 10C5.55228 10 6 10.4477 6 11V16.8552C6 17.2256 6.19173 17.5204 6.4512 17.649C10.0737 19.4439 13.8753 19.4491 17.5443 17.6464C17.8066 17.5175 18 17.2209 18 16.8491V11C18 10.4477 18.4477 10 19 10C19.5523 10 20 10.4477 20 11V16.8491C20 17.9023 19.4429 18.9419 18.4263 19.4414C14.2029 21.5165 9.74717 21.5141 5.56324 19.441C4.55174 18.9398 4 17.9032 4 16.8552V11C4 10.4477 4.44772 10 5 10Z" fill="#1B1B1B"/>
<path d="M21.1028 14.8749L21.5 14H21.6037H23.4991L23.8965 14.8749C24.0099 15.1722 24.0301 15.4984 23.9572 15.8081C23.8843 16.1178 23.7224 16.3903 23.4957 16.605C23.2649 16.8156 22.9855 16.9519 22.6818 16.9891C22.3782 17.0262 22.0745 16.9684 21.8032 16.8198C21.4753 16.6422 21.2243 16.3449 21.0947 15.9857C20.9651 15.6264 20.9692 15.23 21.1028 14.8749Z" fill="#1B1B1B"/>
<path fill-rule="evenodd" clip-rule="evenodd" d="M10.863 3.16824C11.6053 2.94392 12.3947 2.94392 13.137 3.16824L22.5537 6.01397C24.4821 6.59672 24.4821 9.40327 22.5537 9.98603L13.137 12.8318C12.3947 13.0561 11.6053 13.0561 10.863 12.8318L1.44628 9.98603C-0.48209 9.40327 -0.482094 6.59673 1.44627 6.01397L10.863 3.16824ZM21.9852 8L12.5685 5.15426C12.1974 5.0421 11.8026 5.0421 11.4315 5.15426L2.01477 8L11.4315 10.8457C11.8026 10.9579 12.1974 10.9579 12.5685 10.8457L21.9852 8Z" fill="#1B1B1B"/>
</svg>
