<svg width="24" height="24" viewBox="0 0 24 24" fill="none" xmlns="http://www.w3.org/2000/svg">
<path fill-rule="evenodd" clip-rule="evenodd" d="M12.9933 3.88338C12.9355 3.38604 12.5128 3 12 3C11.4477 3 11 3.44772 11 4L11 11H4L3.88338 11.0067C3.38604 11.0645 3 11.4872 3 12C3 12.5523 3.44772 13 4 13L11 13L11 20L11.0067 20.1166C11.0645 20.614 11.4872 21 12 21C12.5523 21 13 20.5523 13 20L13 13L20 13L20.1166 12.9933C20.614 12.9355 21 12.5128 21 12C21 11.4477 20.5523 11 20 11L13 11L13 4L12.9933 3.88338Z" fill="#1B1B1B"/>
</svg>
