<svg width="20" height="20" viewBox="0 0 20 20" fill="none" xmlns="http://www.w3.org/2000/svg">
<path d="M3.71426 18C5.29222 18 6.5714 16.9767 6.5714 15.7143C6.5714 14.4519 5.29222 13.4286 3.71426 13.4286C2.1363 13.4286 0.857117 14.4519 0.857117 15.7143C0.857117 16.9767 2.1363 18 3.71426 18Z" fill="#C6C6C6"/>
<path fill-rule="evenodd" clip-rule="evenodd" d="M6.57142 15.5187V7.33829C6.57142 6.91474 6.05976 6.57141 5.42856 6.57141C4.79736 6.57141 4.28571 6.91474 4.28571 7.33829V15.5187C4.28571 15.9422 4.79736 16.2857 5.42856 16.2857C6.05976 16.2857 6.57142 15.9422 6.57142 15.5187Z" fill="#C6C6C6"/>
<path d="M14.5714 16.8571C16.1494 16.8571 17.4286 15.8337 17.4286 14.5714C17.4286 13.309 16.1494 12.2856 14.5714 12.2856C12.9935 12.2856 11.7143 13.309 11.7143 14.5714C11.7143 15.8337 12.9935 16.8571 14.5714 16.8571Z" fill="#C6C6C6"/>
<path fill-rule="evenodd" clip-rule="evenodd" d="M17.4286 14.1904V4.66666C17.4286 4.14066 16.9169 3.71423 16.2857 3.71423C15.6545 3.71423 15.1429 4.14066 15.1429 4.66666V14.1904C15.1429 14.7164 15.6545 15.1428 16.2857 15.1428C16.9169 15.1428 17.4286 14.7164 17.4286 14.1904Z" fill="#C6C6C6"/>
<path fill-rule="evenodd" clip-rule="evenodd" d="M4.28571 5.09754C4.28571 4.53698 4.70116 4.05009 5.2889 3.92196L15.8313 1.46111C16.6472 1.28323 17.4286 1.85828 17.4286 2.63669V5.92862L4.28571 9.42859V5.09754Z" fill="#C6C6C6"/>
</svg>
