<svg width="16" height="16" viewBox="0 0 16 16" fill="none" xmlns="http://www.w3.org/2000/svg">
<path fill-rule="evenodd" clip-rule="evenodd" d="M5.00824 5.69231C5.09564 3.33162 5.89121 2 8 2C10.1088 2 10.9044 3.33162 10.9918 5.69231H11C12.1046 5.69231 13 6.51886 13 7.53846V12.1538C13 13.1734 12.1046 14 11 14H5C3.89543 14 3 13.1734 3 12.1538V7.53846C3 6.51886 3.89543 5.69231 5 5.69231H5.00824ZM6.00879 5.69235H9.99195C9.91971 3.81048 9.37345 2.92312 8.00037 2.92312C6.62729 2.92312 6.08103 3.81048 6.00879 5.69235Z" fill="#1B1B1B"/>
</svg>
