<svg width="24" height="24" viewBox="0 0 24 24" fill="none" xmlns="http://www.w3.org/2000/svg">
<path fill-rule="evenodd" clip-rule="evenodd" d="M16 20C16 19.4477 16.4477 19 17 19H22C22.5523 19 23 19.4477 23 20C23 20.5523 22.5523 21 22 21H17C16.4477 21 16 20.5523 16 20Z" fill="#1B1B1B"/>
<path fill-rule="evenodd" clip-rule="evenodd" d="M13.0012 3.58411C13.7824 2.8036 15.0482 2.80387 15.8291 3.58469L21.4151 9.17076C22.1962 9.95181 22.1961 11.2181 21.4151 11.9992L12.4141 21H5.11691L3.17548 19.0586C1.61293 17.496 1.61345 14.9625 3.17664 13.4006L13.0012 3.58411ZM7.91127 11.4971L13.5 17.0858L20.0009 10.585L14.4148 4.9989L7.91127 11.4971ZM12.0857 18.5L6.49647 12.9107L4.59027 14.8154C3.80868 15.5963 3.80842 16.8631 4.5897 17.6444L5.94534 19H11.5857L12.0857 18.5Z" fill="#1B1B1B"/>
</svg>
