<svg width="24" height="25" viewBox="0 0 24 25" fill="none" xmlns="http://www.w3.org/2000/svg">
<path fill-rule="evenodd" clip-rule="evenodd" d="M11.1741 12.9115L5.25629 6.99376C4.91457 6.65204 4.91457 6.09801 5.25629 5.75629C5.59801 5.41457 6.15204 5.41457 6.49376 5.75629L12.4115 11.6741C12.7533 12.0158 12.7533 12.5698 12.4115 12.9115C12.0698 13.2533 11.5158 13.2533 11.1741 12.9115ZM17.5062 19.2437L13.5925 15.33C13.2507 14.9882 13.2507 14.4342 13.5925 14.0925C13.9342 13.7508 14.4882 13.7508 14.8299 14.0925L18.7437 18.0063C19.0854 18.348 19.0854 18.902 18.7437 19.2437C18.402 19.5855 17.848 19.5855 17.5062 19.2437Z" fill="#1B1B1B"/>
<path fill-rule="evenodd" clip-rule="evenodd" d="M6.49372 19.2437L18.7437 6.99372C19.0854 6.65201 19.0854 6.09799 18.7437 5.75628C18.402 5.41457 17.848 5.41457 17.5063 5.75628L5.25628 18.0063C4.91457 18.348 4.91457 18.902 5.25628 19.2437C5.59799 19.5854 6.15201 19.5854 6.49372 19.2437Z" fill="#1B1B1B"/>
</svg>
