<svg width="24" height="24" viewBox="0 0 24 24" fill="none" xmlns="http://www.w3.org/2000/svg">
<path d="M9 21.9962V22C9 22.5507 8.55358 22.9971 8.00289 22.9971L7.99884 22.9971C7.40405 22.9947 7.07008 22.9916 6.99693 22.9878C6.2162 22.9474 5.65321 22.8031 5.07996 22.4965C4.40549 22.1358 3.86421 21.5945 3.50351 20.92C3.13376 20.2287 3 19.5523 3 18.4908V5.56389C3 4.44914 3.12927 3.77971 3.50351 3.07996C3.86421 2.40549 4.40549 1.86421 5.07996 1.50351C5.77971 1.12927 6.44914 1 7.56389 1H16.4361C17.5509 1 18.2203 1.12927 18.92 1.50351C19.5945 1.86421 20.1358 2.40549 20.4965 3.07996C20.8707 3.77971 21 4.44914 21 5.56389V8C21 8.55228 20.5523 9 20 9C19.4477 9 19 8.55228 19 8V5.56389C19 4.67237 18.9072 4.34908 18.7329 4.02315C18.5586 3.69723 18.3028 3.44144 17.9768 3.26713C17.6509 3.09283 17.3276 3 16.4361 3H7.56389C6.67237 3 6.34908 3.09283 6.02315 3.26713C5.69723 3.44144 5.44144 3.69723 5.26713 4.02315C5.09283 4.34908 5 4.67237 5 5.56389V18.4908C5 19.3167 5.09283 19.6509 5.26713 19.9768C5.44144 20.3028 5.69723 20.5586 6.02315 20.7329C6.27179 20.8658 6.52525 20.9514 6.99813 20.9845C7.06542 20.9892 7.40109 20.9931 8.00515 20.9962C8.55542 20.9991 9 21.4459 9 21.9962Z" fill="#1B1B1B"/>
<path fill-rule="evenodd" clip-rule="evenodd" d="M11 22V19C11 18.7348 11.1054 18.4804 11.2929 18.2929L18.2929 11.2929C18.6834 10.9024 19.3166 10.9024 19.7071 11.2929L22.7071 14.2929C23.0976 14.6834 23.0976 15.3166 22.7071 15.7071L15.7071 22.7071C15.5196 22.8946 15.2652 23 15 23H12C11.4477 23 11 22.5523 11 22ZM20.0019 15.586L20.5876 15.0003L19.0018 13.4146L18.4162 14.0002L20.0019 15.586ZM18.5877 17.0002L17.0019 15.4144L13.0018 19.4146V21.0003H14.5876L18.5877 17.0002Z" fill="#1B1B1B"/>
</svg>
