<svg width="24" height="24" viewBox="0 0 24 24" fill="none" xmlns="http://www.w3.org/2000/svg">
<path fill-rule="evenodd" clip-rule="evenodd" d="M5.00351 9.08304C4.95765 8.53266 5.36663 8.04931 5.91701 8.00345C6.46739 7.95758 6.95074 8.36657 6.9966 8.91695L7.84378 19.083C7.88697 19.6013 8.32023 20 8.84032 20H15.1598C15.6799 20 16.1131 19.6013 16.1563 19.083L17.0035 8.91695C17.0494 8.36657 17.5327 7.95758 18.0831 8.00345C18.6335 8.04931 19.0425 8.53266 18.9966 9.08304L18.1494 19.2491C18.0199 20.804 16.7201 22 15.1598 22H8.84032C7.28006 22 5.98026 20.804 5.85068 19.2491L5.00351 9.08304ZM9.00399 10.0769C8.97508 9.52541 9.39875 9.05488 9.95028 9.02598C10.5018 8.99707 10.9723 9.42074 11.0012 9.97227L11.3676 16.9627C11.3965 17.5142 10.9728 17.9847 10.4213 18.0136C9.86977 18.0425 9.39924 17.6189 9.37034 17.0673L9.00399 10.0769ZM14.0458 9.02885C14.5973 9.05775 15.021 9.52828 14.9921 10.0798L14.6257 17.0702C14.5968 17.6217 14.1263 18.0454 13.5748 18.0165C13.0232 17.9876 12.5996 17.5171 12.6285 16.9655L12.9948 9.97514C13.0237 9.42361 13.4943 8.99994 14.0458 9.02885Z" fill="#1B1B1B"/>
<path fill-rule="evenodd" clip-rule="evenodd" d="M11 2C9.34315 2 8 3.34315 8 5H5.125C4.50368 5 4 5.44772 4 6V6.5C4 6.77614 4.22386 7 4.5 7H19.5C19.7761 7 20 6.77614 20 6.5V6C20 5.44772 19.4963 5 18.875 5H16C16 3.34315 14.6569 2 13 2H11ZM14 5H10C10 4.44772 10.4477 4 11 4H13C13.5523 4 14 4.44772 14 5Z" fill="#1B1B1B"/>
</svg>
