<svg width="24" height="24" viewBox="0 0 24 24" fill="none" xmlns="http://www.w3.org/2000/svg">
<path d="M21 11C21.5523 11 22 11.4477 22 12V18C22 20.2091 20.2091 22 18 22H6C3.79086 22 2 20.2091 2 18V6C2 3.79086 3.79086 2 6 2H12C12.5523 2 13 2.44772 13 3C13 3.55228 12.5523 4 12 4H6C4.89543 4 4 4.89543 4 6V18C4 19.1046 4.89543 20 6 20H18C19.1046 20 20 19.1046 20 18V12C20 11.4477 20.4477 11 21 11Z" fill="#1B1B1B"/>
<path fill-rule="evenodd" clip-rule="evenodd" d="M7 16V13C7 12.7348 7.10536 12.4804 7.29289 12.2929L18.2929 1.29289C18.6834 0.902369 19.3166 0.902369 19.7071 1.29289L22.7071 4.29289C23.0976 4.68342 23.0976 5.31658 22.7071 5.70711L11.7071 16.7071C11.5196 16.8946 11.2652 17 11 17H8C7.44772 17 7 16.5523 7 16ZM19 6.58579L20.5858 5L19 3.41421L17.4142 5L19 6.58579ZM17.5858 8L16 6.41421L9 13.4142V15H10.5858L17.5858 8Z" fill="#1B1B1B"/>
</svg>
