<svg width="24" height="24" viewBox="0 0 24 24" fill="none" xmlns="http://www.w3.org/2000/svg">
<path fill-rule="evenodd" clip-rule="evenodd" d="M13 17.4361C13 18.098 12.9611 18.2995 12.8511 18.5052C12.7699 18.6569 12.6569 18.7699 12.5052 18.8511C12.2995 18.9611 12.098 19 11.4361 19L5.56388 19C4.90203 19 4.70048 18.9611 4.49475 18.8511C4.3431 18.7699 4.23005 18.6569 4.14895 18.5052C4.03892 18.2995 4 18.098 4 17.4361L4 6.56389C4 5.90203 4.03892 5.70048 4.14895 5.49475C4.23005 5.3431 4.3431 5.23005 4.49475 5.14895C4.70048 5.03892 4.90203 5 5.56388 5L11.4361 5C12.098 5 12.2995 5.03892 12.5052 5.14895C12.6569 5.23005 12.7699 5.3431 12.8511 5.49475C12.9611 5.70048 13 5.90203 13 6.56389C13 7.11617 13.4477 7.56389 14 7.56389C14.5523 7.56389 15 7.11617 15 6.56389C15 5.6001 14.9008 5.08664 14.6147 4.55156C14.3472 4.05136 13.9486 3.65283 13.4484 3.38532C12.9134 3.09916 12.3999 3 11.4361 3L5.56388 3C4.6001 3 4.08664 3.09916 3.55156 3.38532C3.05136 3.65283 2.65283 4.05136 2.38532 4.55156C2.09916 5.08664 2 5.6001 2 6.56389L2 17.4361C2 18.3999 2.09916 18.9134 2.38532 19.4484C2.65283 19.9486 3.05136 20.3472 3.55156 20.6147C4.08664 20.9008 4.6001 21 5.56388 21L11.4361 21C12.3999 21 12.9134 20.9008 13.4484 20.6147C13.9486 20.3472 14.3472 19.9486 14.6147 19.4484C14.9008 18.9134 15 18.3999 15 17.4361C15 16.8838 14.5523 16.4361 14 16.4361C13.4477 16.4361 13 16.8838 13 17.4361Z" fill="#1B1B1B"/>
<path fill-rule="evenodd" clip-rule="evenodd" d="M19.5753 10.9977L8.99917 10.9977C8.44734 10.9977 8 11.4452 8 11.9972C8 12.5491 8.44734 12.9966 8.99917 12.9966L19.5866 12.9966L17.29 15.2939C16.8998 15.6842 16.8998 16.317 17.29 16.7073C17.6802 17.0976 18.3128 17.0976 18.703 16.7073L22.7053 12.7039C23.1699 12.2391 23.0487 11.5309 22.5954 11.1919L18.6973 7.29272C18.3071 6.90242 17.6745 6.90242 17.2843 7.29272C16.8941 7.68302 16.8941 8.31583 17.2843 8.70613L19.5753 10.9977Z" fill="#1B1B1B"/>
</svg>
