<svg width="24" height="24" viewBox="0 0 24 24" fill="none" xmlns="http://www.w3.org/2000/svg">
<path d="M16 17.99C16 18.5423 16.4477 18.99 17 18.99C17.5523 18.99 18 18.5423 18 17.99V15.9919L20 15.9919C20.5523 15.9919 21 15.5442 21 14.9919C21 14.4397 20.5523 13.9919 20 13.9919L18 13.9919V11.9939C18 11.4416 17.5523 10.9939 17 10.9939C16.4477 10.9939 16 11.4416 16 11.9939V13.9919L14 13.9919C13.4477 13.9919 13 14.4397 13 14.9919C13 15.5442 13.4477 15.9919 14 15.9919L16 15.9919V17.99Z" fill="#1B1B1B"/>
<path d="M20.1607 9.24488C20.1603 9.38295 20.1456 9.54943 20.1166 9.73639C20.0989 9.85878 20.076 9.97941 20.0481 10.098C20.0037 10.2982 19.9462 10.5127 19.8757 10.7346L19.8767 10.735C19.8431 10.8327 19.8249 10.9375 19.8249 11.0465C19.8249 11.5763 20.2546 12.0057 20.7847 12.0057C21.2025 12.0057 21.5585 11.739 21.6902 11.3665L21.696 11.3482C21.7 11.336 21.7038 11.3237 21.7074 11.3113C21.8925 10.7063 21.9952 10.0835 21.9964 9.44342C21.9989 9.37054 22 9.29775 22 9.22508C22.0014 7.65444 21.4227 6.13824 20.3758 4.984C19.2831 3.7792 17.7693 3.06678 16.1655 3.00251C15.3761 2.97662 14.5912 3.13352 13.8693 3.46154C13.5912 3.5879 13.3252 3.73838 13.074 3.91092C12.6731 4.1863 12.3099 4.51785 11.9956 4.89707C11.6803 4.51742 11.3161 4.18557 10.9141 3.91005C10.6648 3.73924 10.4011 3.59007 10.1255 3.46457C9.40522 3.13665 8.62228 2.97874 7.83449 3.00251C6.2306 3.06678 4.71679 3.7792 3.6241 4.984C2.57725 6.13824 1.99853 7.65443 1.99997 9.22508C1.99991 9.29775 2.00108 9.37054 2.00351 9.44342C2.00351 13.7022 6.69945 17.3369 10.0232 19.9095C10.3862 20.1904 10.7328 20.4586 11.0551 20.7137C11.3365 20.9004 11.6647 20.9998 12 20.9998C12.3353 20.9998 12.6634 20.9004 12.9449 20.7137C13.2978 20.4348 13.6762 20.1431 14.0707 19.8391L14.1547 19.7743L14.1533 19.7725C14.3947 19.5921 14.551 19.3041 14.551 18.9796C14.551 18.4331 14.1076 17.99 13.5608 17.99C13.3173 17.99 13.0944 18.0778 12.922 18.2234C12.8442 18.2833 12.767 18.3431 12.6904 18.4026C12.576 18.5044 12.4596 18.5937 12.3438 18.6825C12.2271 18.7719 12.111 18.8609 11.9984 18.9617C11.9456 18.9144 11.8932 18.8697 11.8409 18.8263C11.7794 18.7753 11.7238 18.719 11.6624 18.6697C11.5522 18.5813 11.4414 18.4923 11.3275 18.3909C11.18 18.2753 11.0298 18.158 10.8789 18.0401L10.8744 18.0366C8.74849 16.3761 6.32552 14.4837 4.89255 12.302C4.49824 11.7015 4.13608 10.9439 3.95887 10.1365C3.88087 9.81797 3.83872 9.48455 3.83715 9.1411L3.83711 9.12698C3.84019 6.86489 5.60732 5.02653 7.79556 5.01552C9.37407 5.00757 10.7422 5.95267 11.3909 7.32904C11.4052 7.3509 11.4202 7.37554 11.436 7.40153C11.5454 7.58144 11.7004 7.83614 12.0054 7.83614C12.3182 7.83614 12.4556 7.5859 12.5546 7.40559C12.5768 7.36512 12.5971 7.32817 12.617 7.29837L12.6357 7.27043C12.8093 6.91682 13.0307 6.59256 13.2913 6.30685C13.3331 6.25349 13.3631 6.22248 13.3968 6.19268L13.419 6.17303C14.1302 5.46103 15.0973 5.02089 16.1647 5.01552C18.3613 5.00446 20.1504 6.83886 20.1608 9.11277L20.1608 9.12677C20.1608 9.14956 20.1606 9.17231 20.1602 9.19502L20.1603 9.19994L20.1602 9.20673C20.1605 9.21918 20.1606 9.2319 20.1607 9.24488Z" fill="#1B1B1B"/>
</svg>
