<svg width="24" height="24" viewBox="0 0 24 24" fill="none" xmlns="http://www.w3.org/2000/svg">
<path fill-rule="evenodd" clip-rule="evenodd" d="M21.9965 9.43614C22.0512 7.79129 21.4686 6.19111 20.3759 4.98553C19.2832 3.77995 17.7694 3.06707 16.1655 3.00276C15.3761 2.97684 14.5913 3.13385 13.8693 3.46209C13.5912 3.58852 13.3252 3.73911 13.074 3.91176C12.6731 4.18732 12.31 4.51908 11.9957 4.89855C11.6803 4.51865 11.3161 4.18659 10.9141 3.91089C10.6649 3.73996 10.4011 3.5907 10.1255 3.46512C9.40525 3.13698 8.62231 2.97897 7.83452 3.00276C6.23063 3.06707 4.71682 3.77995 3.62413 4.98553C2.53144 6.19111 1.94877 7.79129 2.00354 9.43614C2.00354 13.6977 6.69948 17.3347 10.0232 19.909L10.0233 19.909C10.3862 20.1901 10.7328 20.4586 11.0551 20.7137C11.3366 20.9006 11.6647 21 12 21C12.3353 21 12.6634 20.9006 12.9449 20.7137C13.2979 20.4346 13.6762 20.1428 14.0708 19.8385L14.0712 19.8382C17.4429 17.2379 21.9965 13.726 21.9965 9.43614ZM11.436 7.39298C11.4202 7.36687 11.4052 7.34234 11.391 7.32038C10.7422 5.94312 9.3741 4.9974 7.79559 5.00536C5.59903 5.01642 3.82679 6.86996 3.83718 9.14534C3.83875 9.48901 3.8809 9.82265 3.9589 10.1414C4.13611 10.9493 4.49827 11.7074 4.89258 12.3083C6.32555 14.4914 8.74852 16.3851 10.8744 18.0466L10.8747 18.0468C11.0273 18.1661 11.1784 18.2842 11.3275 18.4011C11.4414 18.5026 11.5523 18.5917 11.6624 18.6802L11.6624 18.6802C11.7743 18.77 11.8854 18.8593 11.9985 18.9606C12.1111 18.8597 12.2271 18.7707 12.3438 18.6812L12.3438 18.6812L12.3438 18.6812C12.4596 18.5924 12.5761 18.503 12.6904 18.4011C13.0078 18.1542 13.3365 17.904 13.6712 17.6492L13.6713 17.6491L13.6714 17.6491C15.6865 16.1149 17.917 14.4168 19.1785 12.3083C19.6115 11.5846 19.9014 10.7652 20.0481 10.1029C20.076 9.9842 20.0989 9.86348 20.1167 9.74102C20.1492 9.53083 20.1637 9.34649 20.1602 9.1993C20.1607 9.16804 20.1609 9.13669 20.1608 9.10527C20.1504 6.82989 18.3613 4.99429 16.1647 5.00536C15.0974 5.01073 14.1302 5.45115 13.4191 6.16363L13.3968 6.18329C13.3631 6.2131 13.3332 6.24413 13.2914 6.29753C13.0308 6.58343 12.8093 6.9079 12.6357 7.26174L12.6171 7.28969C12.5972 7.31951 12.5769 7.35648 12.5547 7.39697L12.5547 7.39698C12.4557 7.57742 12.3183 7.82782 12.0054 7.82782C11.7004 7.82782 11.5456 7.5731 11.4361 7.39308L11.436 7.39298Z" fill="white"/>
</svg>
