<svg width="24" height="24" viewBox="0 0 24 24" fill="none" xmlns="http://www.w3.org/2000/svg">
<path fill-rule="evenodd" clip-rule="evenodd" d="M20.3759 5.98553C21.4686 7.19111 22.0512 8.79129 21.9965 10.4361C21.9965 14.726 17.4429 18.2379 14.0712 20.8382C13.6765 21.1426 13.298 21.4345 12.9449 21.7137C12.6634 21.9006 12.3353 22 12 22C11.6647 22 11.3366 21.9006 11.0551 21.7137C10.7328 21.4585 10.3862 21.1901 10.0232 20.909C6.69948 18.3347 2.00354 14.6977 2.00354 10.4361C1.94877 8.79129 2.53144 7.19111 3.62413 5.98553C4.71682 4.77995 6.23063 4.06707 7.83452 4.00276C8.62231 3.97897 9.40525 4.13698 10.1255 4.46512C10.4011 4.5907 10.6649 4.73996 10.9141 4.91089C11.3161 5.18659 11.6803 5.51865 11.9957 5.89855C12.31 5.51908 12.6731 5.18732 13.074 4.91176C13.3252 4.73911 13.5912 4.58852 13.8693 4.46209C14.5913 4.13385 15.3761 3.97684 16.1655 4.00276C17.7694 4.06707 19.2832 4.77995 20.3759 5.98553Z" fill="#1B1B1B"/>
</svg>
