<svg width="24" height="24" viewBox="0 0 24 24" fill="none" xmlns="http://www.w3.org/2000/svg">
<path fill-rule="evenodd" clip-rule="evenodd" d="M0 12.8606C0 10.7978 1.91615 10.009 3.38172 10.4941C4.09843 7.981 6.24798 6.19752 9.344 6.19752C14.032 6.19752 16.416 10.3215 17.408 11.7529L17.4838 11.8422L18.5215 10.9446C15.6872 7.48438 14.224 4.10956 14.224 1C17.1741 2.89202 19.1966 6.07349 20.1667 10.3286C22.0215 10.5193 24 12.5119 24 14.2068C24 15.4679 22.24 15.6723 20.72 15.6723L16 19.4384C16 16.6431 15.2067 14.336 12.9527 12.4264C14.016 14.0875 14.976 15.6723 14.976 21.0403C18.272 21.1084 20 21.1936 20 23H15.872C14.096 23 13.376 22.4717 12.928 22.2502C12.4525 22.0084 11.9996 21.7682 11.5681 21.53C9.24953 22.2139 6.144 22.1818 6.144 22.1818C6.144 20.9889 6.816 20.4606 7.68 20.4266C8.22866 20.4108 8.76358 20.3364 9.28476 20.1628C6.32517 18.2307 4.74668 16.4747 3.93079 15.056C2.45286 16.0214 0 15.2896 0 12.8606ZM20.9437 1C19.6477 3.67545 19.6477 6.79396 20.9437 9.28195C22.2077 6.79396 22.2077 3.67545 20.9437 1Z" fill="#FF7700"/>
</svg>
