<svg width="16" height="16" viewBox="0 0 16 16" fill="none" xmlns="http://www.w3.org/2000/svg">
<path fill-rule="evenodd" clip-rule="evenodd" d="M5.33301 7.99998C5.33301 9.47274 6.52692 10.6666 7.99967 10.6666C9.47243 10.6666 10.6663 9.47274 10.6663 7.99998C10.6663 6.52722 9.47243 5.33331 7.99967 5.33331C6.52692 5.33331 5.33301 6.52722 5.33301 7.99998ZM8.88856 7.99998C8.88856 8.4909 8.49059 8.88887 7.99967 8.88887C7.50875 8.88887 7.11079 8.4909 7.11079 7.99998C7.11079 7.50906 7.50875 7.11109 7.99967 7.11109C8.49059 7.11109 8.88856 7.50906 8.88856 7.99998Z" fill="#5E5E5E"/>
<path fill-rule="evenodd" clip-rule="evenodd" d="M10.3543 2.32448C10.353 2.32448 10.7481 1.92807 10.7481 1.92807C11.0795 1.5972 11.5307 1.42108 11.9939 1.42108C12.4574 1.42108 12.9082 1.59713 13.2397 1.92862L14.072 2.7609C14.7588 3.44777 14.7588 4.5633 14.0712 5.25323L13.688 5.63399C13.6755 5.66641 13.6973 5.68889 13.6889 5.68889L14.2578 5.68889C15.2271 5.68889 16 6.46176 16 7.43111V8.56889C16 9.53824 15.2271 10.3111 14.2578 10.3111H13.6889C13.6755 10.3566 13.6738 10.3528 13.7089 10.3859L14.073 10.7486C14.7588 11.4367 14.7588 12.5522 14.072 13.2391L13.2402 14.0708C12.9087 14.4029 12.4577 14.5795 11.9939 14.5795C11.5304 14.5795 11.079 14.4028 10.7473 14.0711L10.367 13.6891C10.3336 13.6755 10.3111 13.6973 10.3111 13.6889V14.2578C10.3111 15.2271 9.53824 16 8.56889 16H7.43111C6.46176 16 5.68889 15.2271 5.68889 14.2578L5.68889 13.6889C5.647 13.6755 5.64478 13.6765 5.6136 13.7094L5.25301 14.0708C4.92155 14.4029 4.47052 14.5795 4.00668 14.5795C3.54233 14.5795 3.09097 14.4026 2.76112 14.0716L1.92805 13.2391C1.24118 12.5522 1.24118 11.4367 1.92881 10.7468L2.31198 10.366C2.32448 10.3336 2.30271 10.3111 2.31111 10.3111H1.74222C0.772867 10.3111 0 9.53824 0 8.56889L0 7.43111C0 6.46176 0.772867 5.68889 1.74222 5.68889H2.31111C2.32448 5.64341 2.32618 5.64723 2.2911 5.6141L1.927 5.25142C1.24118 4.5633 1.24118 3.44777 1.92826 2.76069L2.76036 1.92916C3.09153 1.59742 3.54263 1.42108 4.00668 1.42108C4.47022 1.42108 4.92099 1.59713 5.25272 1.92887L5.63304 2.31094C5.6664 2.32448 5.68889 2.30271 5.68889 2.31111V1.74222C5.68889 0.772867 6.46176 0 7.43111 0L8.28444 0C9.2538 0 10.0267 0.772867 10.0267 1.74222V2.21594C10.1654 2.27885 10.2945 2.32448 10.3543 2.32448ZM11.6745 3.51513C11.3368 3.88791 10.8565 4.10226 10.3543 4.10226C9.36479 4.10226 8.53333 3.31585 8.53333 2.31111V1.77778L7.46667 1.77778V2.31111C7.46667 3.29764 6.63561 4.10226 5.64565 4.10226C5.14006 4.10226 4.66188 3.886 4.34614 3.53673L3.99539 3.18569L3.19642 4.00669L3.51564 4.32597C3.89096 4.66645 4.10226 5.1403 4.10226 5.64622C4.10226 6.63578 3.29747 7.46667 2.31111 7.46667H1.77778L1.77778 8.53333H2.31111C3.29747 8.53333 4.10226 9.36422 4.10226 10.3538C4.10226 10.8601 3.88578 11.3394 3.53622 11.6544L3.19644 11.9933L4.01842 12.8147C4.00475 12.8056 4.32551 12.4849 4.32551 12.4849C4.66316 12.1121 5.14347 11.8977 5.64565 11.8977C6.63561 11.8977 7.46667 12.7024 7.46667 13.6889L7.46667 14.2222H8.53333V13.6889C8.53333 12.7024 9.36439 11.8977 10.3543 11.8977C10.8599 11.8977 11.3381 12.114 11.6539 12.4633L12.0046 12.8143C11.9918 12.8057 12.8036 11.9933 12.8036 11.9933L12.4844 11.674C12.109 11.3336 11.8977 10.8597 11.8977 10.3538C11.8977 9.36422 12.7025 8.53333 13.6889 8.53333H14.2222V7.46667L13.6889 7.46667C12.7025 7.46667 11.8977 6.63578 11.8977 5.64622C11.8977 5.13985 12.1142 4.66058 12.4638 4.34563L12.8036 4.00667L11.9826 3.18569L11.6745 3.51513Z" fill="#5E5E5E"/>
</svg>
