<svg width="24" height="24" viewBox="0 0 24 24" fill="none" xmlns="http://www.w3.org/2000/svg">
<path fill-rule="evenodd" clip-rule="evenodd" d="M11.1741 12.4115L5.25629 6.49376C4.91457 6.15204 4.91457 5.59801 5.25629 5.25629C5.59801 4.91457 6.15204 4.91457 6.49376 5.25629L12.4115 11.1741C12.7533 11.5158 12.7533 12.0698 12.4115 12.4115C12.0698 12.7533 11.5158 12.7533 11.1741 12.4115ZM17.5062 18.7437L13.5925 14.83C13.2507 14.4882 13.2507 13.9342 13.5925 13.5925C13.9342 13.2508 14.4882 13.2508 14.8299 13.5925L18.7437 17.5063C19.0854 17.848 19.0854 18.402 18.7437 18.7437C18.402 19.0855 17.848 19.0855 17.5062 18.7437Z" fill="#1B1B1B"/>
<path fill-rule="evenodd" clip-rule="evenodd" d="M6.49372 18.7437L18.7437 6.49372C19.0854 6.15201 19.0854 5.59799 18.7437 5.25628C18.402 4.91457 17.848 4.91457 17.5063 5.25628L5.25628 17.5063C4.91457 17.848 4.91457 18.402 5.25628 18.7437C5.59799 19.0854 6.15201 19.0854 6.49372 18.7437Z" fill="#1B1B1B"/>
</svg>
