<svg width="24" height="24" viewBox="0 0 24 24" fill="none" xmlns="http://www.w3.org/2000/svg">
<path fill-rule="evenodd" clip-rule="evenodd" d="M17.468 4.50247C18.0202 4.50695 18.4643 4.95828 18.4598 5.51055L18.4517 6.50831L19.429 6.51639C19.9813 6.52096 20.4253 6.97236 20.4207 7.52463C20.4161 8.0769 19.9647 8.52089 19.4125 8.51632L18.4355 8.50824L18.4274 9.50566C18.423 10.0579 17.9716 10.502 17.4194 10.4975C16.8671 10.493 16.423 10.0417 16.4275 9.48945L16.4356 8.49169L15.4583 8.48361C14.9061 8.47904 14.4621 8.02763 14.4666 7.47537C14.4712 6.9231 14.9226 6.47911 15.4749 6.48368L16.4518 6.49176L16.4599 5.49434C16.4644 4.94207 16.9157 4.498 17.468 4.50247Z" fill="#1B1B1B"/>
<path fill-rule="evenodd" clip-rule="evenodd" d="M5.32918 20.9701C5.85948 21.1041 6.39684 20.7783 6.52941 20.2425L7.08429 18H11.9721L12.5269 20.2425C12.6595 20.7783 13.1969 21.1041 13.7272 20.9701C14.2575 20.8362 14.5799 20.2933 14.4473 19.7575L10.4884 3.75746C10.2385 2.74751 8.81789 2.74751 8.56799 3.75746L4.60904 19.7575C4.47647 20.2933 4.79888 20.8362 5.32918 20.9701ZM11.4772 16L9.52818 8.12311L7.57916 16H11.4772Z" fill="#1B1B1B"/>
</svg>
