<svg width="16" height="16" viewBox="0 0 16 16" fill="none" xmlns="http://www.w3.org/2000/svg">
<path d="M6 5C6 4.44772 6.44772 4 7 4C7.55228 4 8 4.44772 8 5V6C8 6.55228 7.55228 7 7 7C6.44772 7 6 6.55228 6 6V5Z" fill="#5E5E5E"/>
<path fill-rule="evenodd" clip-rule="evenodd" d="M12.1414 7.44437C12.0633 7.52247 11.9367 7.52247 11.8586 7.44437L11.2071 6.79289C10.8166 6.40237 10.1834 6.40237 9.79289 6.79289C9.40237 7.18342 9.40237 7.81658 9.79289 8.20711L11.2929 9.70711C11.6834 10.0976 12.3166 10.0976 12.7071 9.70711L14.2071 8.20711C14.5976 7.81658 14.5976 7.18342 14.2071 6.79289C13.8166 6.40237 13.1834 6.40237 12.7929 6.79289L12.1414 7.44437ZM11.7172 12.3029L9.70711 10.2929C9.31658 9.90237 8.68342 9.90237 8.29289 10.2929C7.90237 10.6834 7.90237 11.3166 8.29289 11.7071L11.2929 14.7071C11.6834 15.0976 12.3166 15.0976 12.7071 14.7071L15.7071 11.7071C16.0976 11.3166 16.0976 10.6834 15.7071 10.2929C15.3166 9.90237 14.6834 9.90237 14.2929 10.2929L12.2828 12.3029C12.1266 12.4592 11.8734 12.4592 11.7172 12.3029Z" fill="#5E5E5E"/>
<path d="M4 0C1.79086 0 0 1.79086 0 4L0 12C0 14.2091 1.79086 16 4 16L7 16C7.55228 16 8 15.5523 8 15C8 14.4477 7.55228 14 7 14L4 14C2.89543 14 2 13.1046 2 12L2 4C2 2.89543 2.89543 2 4 2L10 2C11.1046 2 12 2.89543 12 4C12 4.55228 12.4477 5 13 5C13.5523 5 14 4.55228 14 4C14 1.79086 12.2091 0 10 0L4 0Z" fill="#5E5E5E"/>
</svg>
