<svg width="24" height="24" viewBox="0 0 24 24" fill="none" xmlns="http://www.w3.org/2000/svg">
<path fill-rule="evenodd" clip-rule="evenodd" d="M1.5975 14.1674C1.3859 14.1752 1.18382 14.0421 1.10556 13.822C0.515131 12.1584 0.668769 7.68578 4.97342 5.2301C6.28157 4.48232 7.55968 4.08124 8.77257 4.03667C12.0498 3.91625 14.0157 6.34098 14.9606 7.50515C15.1276 7.71127 15.1629 8.06622 14.9858 8.26472C14.211 9.14009 13.1653 9.97635 11.7954 10.8203C9.35176 12.3255 6.75046 12.8992 4.66032 13.3586C3.53021 13.6068 2.55405 13.8208 1.75655 14.1341C1.70356 14.1563 1.64913 14.1655 1.5975 14.1674ZM23.0847 4.82166C23.8565 5.80979 24.1663 7.17328 23.9138 8.46997C23.73 9.41536 23.2679 10.1512 22.6465 10.4866C22.2293 10.7131 21.7905 10.838 21.346 10.8544C20.7304 10.877 20.1248 10.6795 19.6763 10.3301C18.5557 11.5361 18.0971 12.8659 17.6542 14.1515C17.4896 14.6301 17.3303 15.0914 17.1462 15.5216C17.1028 16.7189 17.7392 17.5989 18.2504 18.3105C18.6787 18.9073 19.0505 19.4216 18.8394 19.9925C18.6317 20.5548 17.9656 20.7553 17.2736 20.8895C17.1204 20.9143 16.9842 20.9278 16.8534 20.9326C15.4633 20.9837 14.5789 20.1149 14.0508 19.5946C13.9607 19.5083 13.8435 19.3956 13.7744 19.3381L12.1152 19.4055C10.5399 19.4634 8.7338 19.5017 6.99848 19.2596C6.59403 20.2985 5.62737 20.9513 4.37094 20.9975C3.92547 21.0138 3.47331 20.9507 3.06432 20.8143C2.69326 20.6903 2.18313 20.4688 2.05703 19.9679C1.92059 19.4302 2.30541 18.9913 2.67652 18.567C2.80348 18.4218 2.93925 18.2673 3.0576 18.1072C2.13918 17.9532 1.25811 17.8557 0.585668 17.9666C0.405299 17.999 0.226511 17.9264 0.113133 17.7783C-0.000182234 17.6321 -0.0311627 17.4316 0.0328616 17.2533C0.730255 15.2981 2.92408 14.8167 5.46397 14.2562C7.58625 13.7876 9.99231 13.2565 12.2929 11.8398C15.8902 9.6245 16.3713 7.97062 16.8372 6.37277C17.0153 5.75931 17.2002 5.12321 17.5587 4.501C18.2455 3.30461 19.164 3.02553 19.813 3.00169C20.9206 2.96099 22.1746 3.65941 23.0847 4.82166Z" fill="#C6C6C6"/>
</svg>
