<svg width="18" height="16" viewBox="0 0 18 16" fill="none" xmlns="http://www.w3.org/2000/svg">
<g id="icones/minificar_video">
<path id="Video" fill-rule="evenodd" clip-rule="evenodd" d="M13.4361 0H4.56389C3.44914 0 2.77971 0.129272 2.07996 0.503506C1.40549 0.864213 0.864213 1.40549 0.503506 2.07996C0.129272 2.77971 0 3.44914 0 4.56389V11.4361C0 12.5509 0.129272 13.2203 0.503506 13.92C0.864213 14.5945 1.40549 15.1358 2.07996 15.4965C2.77971 15.8707 3.44914 16 4.56389 16H13.4361C14.5509 16 15.2203 15.8707 15.92 15.4965C16.5945 15.1358 17.1358 14.5945 17.4965 13.92C17.8707 13.2203 18 12.5509 18 11.4361V4.56389C18 3.44914 17.8707 2.77971 17.4965 2.07996C17.1358 1.40549 16.5945 0.864213 15.92 0.503506C15.2203 0.129272 14.5509 0 13.4361 0ZM3.02315 2.26713C3.34908 2.09283 3.67237 2 4.56389 2H13.4361C14.3276 2 14.6509 2.09283 14.9768 2.26713C15.3028 2.44144 15.5586 2.69723 15.7329 3.02315C15.9072 3.34908 16 3.67237 16 4.56389V11.4361C16 12.3276 15.9072 12.6509 15.7329 12.9768C15.5586 13.3028 15.3028 13.5586 14.9768 13.7329C14.6509 13.9072 14.3276 14 13.4361 14H4.56389C3.67237 14 3.34908 13.9072 3.02315 13.7329C2.69723 13.5586 2.44144 13.3028 2.26713 12.9768C2.09283 12.6509 2 12.3276 2 11.4361V4.56389C2 3.67237 2.09283 3.34908 2.26713 3.02315C2.44144 2.69723 2.69723 2.44144 3.02315 2.26713Z" fill="#9E9E9E"/>
<rect id="Mini video" x="7" y="7" width="7" height="5" rx="1" fill="#1B1B1B"/>
</g>
</svg>
