<svg width="16" height="15" viewBox="0 0 16 15" fill="none" xmlns="http://www.w3.org/2000/svg">
<g id="Icon">
<path fill-rule="evenodd" clip-rule="evenodd" d="M8 0.0126953C6.23958 0.0126953 4.8464 0.0844057 3.18203 0.252388C1.63897 0.408127 0.414117 1.60026 0.238439 3.11736C0.0797125 4.48806 0 5.78633 0 7.0127C0 8.23906 0.0797124 9.53733 0.238439 10.908C0.414117 12.4251 1.63897 13.6173 3.18203 13.773C4.84637 13.941 6.23956 14.0127 8 14.0127C9.76042 14.0127 11.1536 13.941 12.818 13.773C14.361 13.6173 15.5859 12.4251 15.7616 10.908C15.9203 9.53733 16 8.23906 16 7.0127C16 5.78633 15.9203 4.48806 15.7616 3.11736C15.5859 1.60027 14.361 0.408132 12.818 0.252393C11.1536 0.0844073 9.76044 0.0126953 8 0.0126953ZM2.21889 3.49161C2.29708 2.82475 2.84221 2.30074 3.52896 2.23228C4.99752 2.08589 6.28571 2.0127 8 2.0127C9.71429 2.0127 11.0025 2.08589 12.471 2.23229C13.1578 2.30074 13.7029 2.82476 13.7811 3.49161C13.927 4.73624 14 5.90994 14 7.0127C14 8.11545 13.927 9.28915 13.7811 10.5338C13.7029 11.2006 13.1578 11.7247 12.471 11.7931C11.0025 11.9395 9.71429 12.0127 8 12.0127C6.28571 12.0127 4.99752 11.9395 3.52895 11.7931C2.8422 11.7246 2.29708 11.2006 2.21889 10.5338C2.07296 9.28915 2 8.11545 2 7.0127C2 5.90994 2.07296 4.73624 2.21889 3.49161Z" fill="#5E5E5E"/>
<path d="M6 4.72764C6 4.19688 6.56028 3.85165 7.03653 4.08896L10.604 6.35034C11.1319 6.61342 11.132 7.36443 10.6041 7.62762L7.03667 9.93636C6.56042 10.1738 6 9.82858 6 9.29775V4.72764Z" fill="#5E5E5E"/>
</g>
</svg>
