<svg width="16" height="16" viewBox="0 0 16 16" fill="none" xmlns="http://www.w3.org/2000/svg">
<path fill-rule="evenodd" clip-rule="evenodd" d="M10.907 7.20932L11.8041 7.4538C11.9119 7.48324 11.9967 7.58872 12 7.69869L11.9988 8.33688C11.9917 8.4538 11.9066 8.55765 11.7999 8.58667L10.9 8.82625C10.8905 8.82952 10.871 8.8471 10.8669 8.85732L10.6284 9.42232C10.6205 9.44031 10.6213 9.46648 10.6259 9.47629L11.0864 10.2772C11.141 10.3724 11.1286 10.5025 11.057 10.5863C11.057 10.5863 11.0527 10.5912 11.047 10.5976C11.0159 10.6327 10.9198 10.7415 10.8355 10.8262C10.7363 10.9239 10.6101 11.0296 10.5906 11.0458C10.5894 11.0469 10.5883 11.0478 10.5883 11.0478C10.5072 11.1157 10.3683 11.128 10.2757 11.0756L9.46879 10.6161C9.46672 10.6153 9.42745 10.6145 9.42332 10.6161L8.85201 10.8524C8.83258 10.8606 8.8148 10.8818 8.81108 10.8921L8.56263 11.7878C8.53411 11.8884 8.43158 12 8.30881 12H7.67053C7.54651 12 7.4444 11.8872 7.41753 11.7854L7.17569 10.8794C7.17239 10.8708 7.15461 10.852 7.14469 10.8479L6.57214 10.6112C6.55188 10.6022 6.52253 10.6071 6.51716 10.61L5.70773 11.0638C5.61554 11.1165 5.4754 11.1034 5.39438 11.0335C5.38942 11.0294 5.25548 10.9154 5.15378 10.8177C5.05296 10.7148 4.9416 10.586 4.93082 10.5736L4.93014 10.5728C4.85821 10.4881 4.84622 10.3581 4.9012 10.2629L5.36709 9.46198C5.37164 9.45339 5.37247 9.42845 5.36833 9.41864L5.13022 8.85241C5.12278 8.83401 5.10376 8.81644 5.09384 8.81276L4.19719 8.56787C4.08971 8.53843 4.00496 8.43336 4 8.32298L4.00124 7.68684C4.00744 7.56868 4.09343 7.46402 4.20174 7.43622L5.09839 7.19542C5.10914 7.19174 5.12733 7.17457 5.13146 7.16517L5.37164 6.59894C5.37908 6.58136 5.37826 6.55519 5.37329 6.54579L4.91319 5.74571C4.85903 5.65004 4.87143 5.52044 4.9413 5.43704C4.9413 5.43704 4.94279 5.43533 4.94441 5.43346C4.96442 5.41041 5.07073 5.28794 5.16784 5.19379C5.26479 5.09633 5.39383 4.98754 5.40884 4.97489L5.41009 4.97383C5.49194 4.90597 5.63084 4.8933 5.72344 4.94603L6.53162 5.40392C6.53369 5.40474 6.57296 5.40556 6.57668 5.40392L7.14882 5.1668C7.16701 5.15863 7.18603 5.13532 7.18975 5.12347L7.43696 4.22322C7.463 4.13042 7.55891 4 7.69078 4L8.32906 4C8.46052 4 8.55602 4.13164 8.58206 4.22486L8.82555 5.14268C8.82844 5.15127 8.84663 5.17089 8.85697 5.17498L9.42828 5.41047C9.44936 5.41987 9.47747 5.41455 9.4816 5.41292L10.291 4.9583C10.384 4.90597 10.5238 4.91946 10.6048 4.98855C10.6048 4.98855 10.6077 4.99105 10.6115 4.99431C10.6407 5.01934 10.7579 5.11966 10.8479 5.20973C10.9467 5.30743 11.0578 5.43613 11.0694 5.44957L11.0703 5.45053C11.1422 5.53475 11.1542 5.66517 11.0988 5.76043L10.6337 6.56092C10.6296 6.5695 10.6284 6.59526 10.6325 6.60507L10.8698 7.16966C10.8772 7.18765 10.8967 7.20564 10.907 7.20932ZM6.66667 8C6.66667 8.73638 7.26362 9.33333 8 9.33333C8.73638 9.33333 9.33333 8.73638 9.33333 8C9.33333 7.26362 8.73638 6.66667 8 6.66667C7.26362 6.66667 6.66667 7.26362 6.66667 8Z" fill="#5E5E5E"/>
<path d="M4.00018 3.5153L4.00018 0.484704C4.00018 0.0982231 3.64412 -0.132298 3.3783 0.0820829L1.49941 1.59738C1.26192 1.78891 1.26192 2.21109 1.49941 2.40262L3.3783 3.91792C3.64412 4.1323 4.00018 3.90178 4.00018 3.5153Z" fill="#5E5E5E"/>
<path fill-rule="evenodd" clip-rule="evenodd" d="M8.00013 3L3.00013 3V1L8.00013 1C11.8661 1 15.0001 4.13401 15.0001 8C15.0001 11.866 11.8661 15 8.00013 15C7.44784 15 7.00012 14.5523 7.00012 14C7.00012 13.4477 7.44784 13 8.00012 13C10.7616 13 13.0001 10.7614 13.0001 8C13.0001 5.23858 10.7616 3 8.00013 3ZM5.24345 12.1721L5.2433 12.1723C5.50804 12.3522 5.68195 12.6558 5.68195 13C5.68195 13.5523 5.23423 14 4.68195 14C4.46945 14 4.27244 13.9337 4.11045 13.8207C3.63128 13.4999 3.19393 13.1214 2.80832 12.6953L2.80911 12.6946C2.6354 12.5147 2.52853 12.2698 2.52853 12C2.52853 11.4477 2.97625 11 3.52853 11C3.83467 11 4.10868 11.1376 4.29212 11.3543C4.57326 11.6649 4.89287 11.94 5.24345 12.1721ZM3.08203 9C3.08203 9.55229 2.63432 10 2.08203 10C1.52975 10 1.08203 9.55229 1.08203 9C1.08203 8.44772 1.52975 8 2.08203 8C2.63432 8 3.08203 8.44772 3.08203 9Z" fill="#5E5E5E"/>
</svg>
