<svg width="24" height="24" viewBox="0 0 24 24" fill="none" xmlns="http://www.w3.org/2000/svg">
<path fill-rule="evenodd" clip-rule="evenodd" d="M2.72948 20.9614C3.26111 21.1149 3.81329 20.7968 3.96282 20.2508L4.60143 17.9187H10.3986L11.0372 20.2508C11.1867 20.7968 11.7389 21.1149 12.2705 20.9614C12.8022 20.8078 13.1119 20.2407 12.9624 19.6947L8.49995 3.02701C8.49995 3.02701 8.27133 2 7.5 2C6.72867 2 6.50005 3.02701 6.50005 3.02701L2.0376 19.6947C1.88808 20.2407 2.19784 20.8078 2.72948 20.9614ZM9.83609 15.8647L7.5 7.3338L5.16391 15.8647H9.83609Z" fill="#1B1B1B"/>
<path fill-rule="evenodd" clip-rule="evenodd" d="M19 7H21C21.1841 7 21.3566 7.04975 21.5047 7.13653C21.6529 7.22331 21.7767 7.34713 21.8635 7.49528C21.9503 7.64343 22 7.81591 22 8C22 8.18409 21.9503 8.35657 21.8635 8.50472C21.7767 8.65287 21.6529 8.77669 21.5047 8.86347C21.3566 8.95025 21.1841 9 21 9H19V11C19 11.5523 18.5523 12 18 12C17.4477 12 17 11.5523 17 11V9H15C14.8159 9 14.6434 8.95025 14.4953 8.86347C14.3471 8.77669 14.2233 8.65287 14.1365 8.50472C14.0497 8.35657 14 8.18409 14 8C14 7.81591 14.0497 7.64343 14.1365 7.49528C14.2233 7.34713 14.3471 7.22331 14.4953 7.13653C14.6434 7.04975 14.8159 7 15 7H17V5C17 4.44772 17.4477 4 18 4C18.5523 4 19 4.44772 19 5V7ZM15 17C15 16.4477 15.4477 16 16 16H20C20.5523 16 21 16.4477 21 17C21 17.5523 20.5523 18 20 18H16C15.4477 18 15 17.5523 15 17Z" fill="#1B1B1B"/>
</svg>
