<svg width="24" height="25" viewBox="0 0 24 25" fill="none" xmlns="http://www.w3.org/2000/svg">
<path d="M21.9507 18.5419L21.9519 18.5956L21.9519 18.5976L21.9521 18.6466C21.9432 19.943 20.8795 20.9264 19.5763 20.844C18.2712 20.7614 17.2189 19.6412 17.2278 18.3417C17.2366 17.0441 18.3003 16.0606 19.6035 16.1431C19.7754 16.1539 19.9453 16.183 20.111 16.2297L20.3572 16.299L20.3747 14.1764L16.2888 15.1751C16.1807 15.1989 16.0663 15.21 15.9515 15.2075L15.7557 15.2032L15.7246 19.7729L15.7254 19.7594C15.7277 19.7426 15.7275 19.7438 15.7275 19.7438L15.7244 19.8002C15.7156 21.097 14.6519 22.0805 13.3487 21.998C12.0436 21.9154 10.9913 20.7952 11.0001 19.4958C11.0089 18.1981 12.0727 17.2146 13.3758 17.2971C13.5468 17.3079 13.7158 17.3367 13.8807 17.3829L14.1269 17.452L14.1595 12.6686L14.1596 12.6592C14.1684 11.9183 14.6434 11.2979 15.3133 11.1502L19.8703 10.0362C20.6922 9.85525 21.0002 10.0028 21.5002 10.5028C22.0002 11.0029 21.9485 11.5028 21.9491 12.1157C21.9497 12.7286 21.967 16.5454 21.9507 18.5419ZM15.7699 13.1115C15.7696 13.1532 15.7736 13.1951 15.7819 13.2363C15.8302 13.4778 16.0152 13.6578 16.2309 13.5977L20.1084 12.5443C20.3194 12.4855 20.4268 12.2231 20.3772 11.9752C20.3289 11.7337 20.1439 11.5537 19.9282 11.6138L16.0507 12.6672C15.8773 12.7155 15.7713 12.9045 15.7699 13.1115ZM13.3527 20.7044C13.9446 20.7419 14.428 20.2973 14.432 19.7129C14.436 19.1303 13.9619 18.628 13.3718 18.5907C12.7799 18.5532 12.2965 18.9978 12.2925 19.5822C12.2885 20.1648 12.7626 20.6671 13.3527 20.7044ZM18.5202 18.4282C18.5162 19.0107 18.9902 19.5131 19.5803 19.5504C20.1723 19.5879 20.6557 19.1433 20.6597 18.5589C20.6636 17.9763 20.1896 17.474 19.5995 17.4367C19.0075 17.3992 18.5241 17.8438 18.5202 18.4282Z" fill="#C6C6C6"/>
<path d="M10.6211 2.05656C14.169 1.49463 17.6828 2.8731 19.9125 5.58333C20.0002 5.68996 20.0859 5.79865 20.1696 5.90937C20.5026 6.34998 20.4153 6.97711 19.9747 7.31009C19.5341 7.64308 18.907 7.55583 18.574 7.11522C18.4786 6.98899 18.3799 6.86605 18.278 6.74649C16.4897 4.64842 13.7257 3.58978 10.934 4.03194C6.57011 4.72311 3.59279 8.82104 4.28396 13.1849C4.65979 15.5578 6.05904 17.5906 8.08153 18.8008C8.55544 19.0844 8.70973 19.6985 8.42614 20.1724C8.14254 20.6463 7.52846 20.8006 7.05455 20.517C4.52896 19.0057 2.77808 16.4621 2.30859 13.4978C1.44462 8.04294 5.16627 2.92053 10.6211 2.05656ZM12.757 8.77537C13.3093 8.76692 13.7638 9.20774 13.7722 9.75996C13.7807 10.3122 13.3398 10.7667 12.7876 10.7751C12.6821 10.7767 12.5762 10.7896 12.4707 10.814C11.6635 11.0003 11.1602 11.8057 11.3466 12.6129C11.4426 13.0289 11.7051 13.3747 12.0696 13.5811C12.5502 13.8533 12.7192 14.4635 12.4471 14.944C12.175 15.4246 11.5648 15.5936 11.0842 15.3215C10.2369 14.8418 9.62127 14.0307 9.39781 13.0628C8.96298 11.1794 10.1373 9.30005 12.0208 8.86522C12.2641 8.80905 12.5106 8.77914 12.757 8.77537Z" fill="#C6C6C6"/>
</svg>
