<svg width="46" height="65" viewBox="0 0 46 65" fill="none" xmlns="http://www.w3.org/2000/svg">
<path fill-rule="evenodd" clip-rule="evenodd" d="M0.5 0C0.776142 0 1 0.230964 1 0.515873V64.4841C1 64.769 0.776142 65 0.5 65C0.223858 65 0 64.769 0 64.4841V0.515873C0 0.230964 0.223858 0 0.5 0ZM9.5 0C9.77614 0 10 0.230964 10 0.515873V64.4841C10 64.769 9.77614 65 9.5 65C9.22386 65 9 64.769 9 64.4841V0.515873C9 0.230964 9.22386 0 9.5 0ZM18.5 0C18.7761 0 19 0.230964 19 0.515873V64.4841C19 64.769 18.7761 65 18.5 65C18.2239 65 18 64.769 18 64.4841V0.515873C18 0.230964 18.2239 0 18.5 0ZM27.5 0C27.7761 0 28 0.230964 28 0.515873V64.4841C28 64.769 27.7761 65 27.5 65C27.2239 65 27 64.769 27 64.4841V0.515873C27 0.230964 27.2239 0 27.5 0ZM36.5 0C36.7761 0 37 0.230964 37 0.515873V64.4841C37 64.769 36.7761 65 36.5 65C36.2239 65 36 64.769 36 64.4841V0.515873C36 0.230964 36.2239 0 36.5 0ZM45.5 0C45.7761 0 46 0.230964 46 0.515873V64.4841C46 64.769 45.7761 65 45.5 65C45.2239 65 45 64.769 45 64.4841V0.515873C45 0.230964 45.2239 0 45.5 0Z" fill="#1B1B1B"/>
</svg>
