<svg width="50" height="15" viewBox="0 0 50 15" fill="none" xmlns="http://www.w3.org/2000/svg">
    <path fill-rule="evenodd" clip-rule="evenodd" d="M2 14H48V14.206C48 14.4166 47.9163 14.6185 47.7674 14.7674C47.6185 14.9163 47.4166 15 47.206 15H2.794C2.58342 15 2.38146 14.9163 2.23256 14.7674C2.08365 14.6185 2 14.4166 2 14.206V14Z" fill="#1B1B1B"/>
    <path fill-rule="evenodd" clip-rule="evenodd" d="M2.5 2C2.776 2 3 2.043 3 2.096V14H2V2.096C2 2.043 2.224 2 2.5 2ZM11.5 2C11.776 2 12 2.046 12 2.103V14.897C12 14.954 11.776 15 11.5 15C11.224 15 11 14.954 11 14.897V2.103C11 2.046 11.224 2 11.5 2ZM20.5 2C20.776 2 21 2.046 21 2.103V14.897C21 14.954 20.776 15 20.5 15C20.224 15 20 14.954 20 14.897V2.103C20 2.046 20.224 2 20.5 2ZM29.5 2C29.776 2 30 2.046 30 2.103V14.897C30 14.954 29.776 15 29.5 15C29.224 15 29 14.954 29 14.897V2.103C29 2.046 29.224 2 29.5 2ZM37.5 2C37.776 2 38 2.046 38 2.103V14.897C38 14.954 37.776 15 37.5 15C37.224 15 37 14.954 37 14.897V2.103C37 2.046 37.224 2 37.5 2ZM47.5 2C47.776 2 48 2.043 48 2.096V14H47V2.096C47 2.043 47.224 2 47.5 2Z" fill="#1B1B1B"/>
    <path fill-rule="evenodd" clip-rule="evenodd" d="M4 0H46C46.5304 0 47.0391 0.210714 47.4142 0.585786C47.7893 0.960859 48 1.46957 48 2V5H47V3.5C47 3.36739 46.9473 3.24021 46.8536 3.14645C46.7598 3.05268 46.6326 3 46.5 3H3.5C3.36739 3 3.24021 3.05268 3.14645 3.14645C3.05268 3.24021 3 3.36739 3 3.5V5H2V2C2 1.46957 2.21071 0.960859 2.58579 0.585786C2.96086 0.210714 3.46957 0 4 0Z" fill="#1B1B1B"/>
</svg>
