<svg width="24" height="24" viewBox="0 0 24 24" fill="none" xmlns="http://www.w3.org/2000/svg">
<path fill-rule="evenodd" clip-rule="evenodd" d="M20.3333 23H3.66667C2.74619 23 2 22.2068 2 21.2284V10.1221C2 9.9362 2.08233 9.76117 2.22222 9.64964L3.11111 9.11814C3.35657 8.92245 3.70479 8.97533 3.88889 9.23625C3.96101 9.33848 4 9.46281 4 9.59058V20.3984C4 20.7246 4.24873 21 4.55556 21H8.43418C8.74101 21 9 20.7246 9 20.3984V14.3726C9 13.068 9.98466 12 11.212 12H12.7774C14.0047 12 14.9996 13.068 14.9996 14.3726V20.3984C14.9996 20.7246 15.2483 21 15.5551 21H19.4444C19.7513 21 20 20.7246 20 20.3984V9.59058C20 9.26443 20.2487 9.00003 20.5556 9.00003C20.6758 9.00003 20.7927 9.04148 20.8889 9.11814L21.7778 9.64964C21.9177 9.76117 22 9.9362 22 10.1221V21.2284C22 22.2068 21.2538 23 20.3333 23ZM13 20.3888V14.7651C13 14.3425 12.6829 14 12.2918 14H11.7082C11.3171 14 11 14.3425 11 14.7651V20.3888C11 20.741 11.2642 21 11.5902 21H12.4098C12.7358 21 13 20.741 13 20.3888Z" fill="#1B1B1B"/>
<path d="M12.1777 4.39848L22.3989 11.7988C22.841 12.1321 23.4682 12.042 23.7998 11.5977C24.1314 11.1534 24.0418 10.523 23.5997 10.1898L12.598 2.20113C12.2422 1.93296 11.753 1.93296 11.3972 2.20113L0.400316 10.1898C-0.0417958 10.523 -0.131397 11.1534 0.200188 11.5977C0.531772 12.042 1.15898 12.1321 1.60109 11.7988L11.8175 4.39848C11.9242 4.31803 12.071 4.31803 12.1777 4.39848Z" fill="#1B1B1B"/>
</svg>
