<svg width="24" height="24" viewBox="0 0 24 24" fill="none" xmlns="http://www.w3.org/2000/svg">
<path fill-rule="evenodd" clip-rule="evenodd" d="M12 3.7996C7.47104 3.7996 3.7996 7.47104 3.7996 12C3.7996 13.8307 4.29797 15.4028 5.27528 16.7403C5.56848 17.1415 5.48089 17.7044 5.07965 17.9976C4.67841 18.2908 4.11546 18.2032 3.82227 17.802C2.60151 16.1314 2 14.1803 2 12C2 6.47715 6.47715 2 12 2C14.531 2 16.8443 2.94147 18.6055 4.492C18.9785 4.82038 19.0146 5.38896 18.6862 5.76194C18.3578 6.13493 17.7893 6.17109 17.4163 5.84271C15.9711 4.57035 14.0767 3.7996 12 3.7996ZM21.0579 10.7386C21.5545 10.7192 21.9728 11.1059 21.9922 11.6025C21.9974 11.7344 22 11.8669 22 12C22 12.6827 21.9314 13.3504 21.8006 13.9962C21.7018 14.4832 21.227 14.798 20.7399 14.6993C20.2529 14.6006 19.9381 14.1257 20.0368 13.6387C20.144 13.1099 20.2004 12.562 20.2004 12C20.2004 11.8904 20.1983 11.7814 20.194 11.6729C20.1746 11.1763 20.5613 10.758 21.0579 10.7386ZM20.1538 16.1442C20.5723 16.4122 20.6942 16.9687 20.4262 17.3872C19.7417 18.4558 18.8598 19.3852 17.8317 20.1244C17.4282 20.4145 16.8659 20.3225 16.5758 19.919C16.2857 19.5156 16.3777 18.9533 16.7812 18.6632C17.6251 18.0564 18.3492 17.2933 18.9108 16.4165C19.1789 15.9981 19.7354 15.8761 20.1538 16.1442ZM6.40441 19.2332C6.66873 18.8124 7.22414 18.6855 7.64496 18.9498C8.90632 19.7421 10.3983 20.2004 12 20.2004C12.7325 20.2004 13.4413 20.1046 14.1151 19.9253C14.5954 19.7975 15.0883 20.0832 15.2161 20.5634C15.3439 21.0436 15.0582 21.5365 14.5779 21.6643C13.7545 21.8835 12.8902 22 12 22C10.0498 22 8.22749 21.4408 6.68777 20.4737C6.26695 20.2094 6.14009 19.654 6.40441 19.2332Z" fill="#FF7700"/>
<path fill-rule="evenodd" clip-rule="evenodd" d="M12.2427 7.26455C9.62749 7.26455 7.50745 9.38458 7.50745 11.9998C7.50745 14.615 9.62749 16.735 12.2427 16.735C12.6989 16.735 13.0687 17.1048 13.0687 17.561C13.0687 18.0172 12.6989 18.387 12.2427 18.387C8.7151 18.387 5.85544 15.5273 5.85544 11.9998C5.85544 8.4722 8.7151 5.61253 12.2427 5.61253C14.0067 5.61253 15.6051 6.32875 16.7601 7.48427C17.0826 7.80691 17.0825 8.32991 16.7599 8.65242C16.4372 8.97493 15.9142 8.97482 15.5917 8.65217C14.7338 7.79394 13.5509 7.26455 12.2427 7.26455ZM17.6569 13.5216C18.0731 13.7084 18.259 14.1973 18.0722 14.6134C17.655 15.5427 17.0228 16.3532 16.2394 16.9823C15.8837 17.2679 15.3638 17.2111 15.0782 16.8554C14.7925 16.4997 14.8493 15.9798 15.205 15.6942C15.7872 15.2267 16.2562 14.6248 16.5651 13.9368C16.7519 13.5207 17.2408 13.3347 17.6569 13.5216Z" fill="#FF7700"/>
<path fill-rule="evenodd" clip-rule="evenodd" d="M20.3455 4.51167C19.8054 3.97348 18.9324 3.97107 18.3894 4.50629L13.5173 9.30792C13.5073 9.31774 13.4975 9.32768 13.4879 9.33772C13.1518 9.20021 12.7841 9.12446 12.3988 9.12446C10.8016 9.12446 9.50684 10.4264 9.50684 12.0324C9.50684 13.6384 10.8016 14.9403 12.3988 14.9403C13.996 14.9403 15.2908 13.6384 15.2908 12.0324C15.2908 11.8404 15.2723 11.6528 15.237 11.4712C15.3187 11.4192 15.3962 11.3579 15.4679 11.2872L20.34 6.48559C20.8901 5.94347 20.8926 5.05681 20.3455 4.51167ZM12.3988 11.0626C11.8664 11.0626 11.4348 11.4966 11.4348 12.0319C11.4348 12.5673 11.8664 13.0013 12.3988 13.0013C12.9312 13.0013 13.3628 12.5673 13.3628 12.0319C13.3628 11.4966 12.9312 11.0626 12.3988 11.0626Z" fill="#FF7700"/>
</svg>
