<svg width="18" height="14" viewBox="0 0 18 14" fill="none" xmlns="http://www.w3.org/2000/svg">
<path fill-rule="evenodd" clip-rule="evenodd" d="M14.9048 0.142944C16.3714 0.142944 17.5714 1.34211 17.5714 2.80776V11.1924C17.5714 12.6581 16.3714 13.8572 14.9048 13.8572H3.09526C1.62859 13.8572 0.428589 12.6581 0.428589 11.1924V2.80776C0.428589 1.34211 1.62859 0.142944 3.09526 0.142944H14.9048ZM14.5143 12.1369C15.2476 12.1369 15.8594 11.5358 15.8594 10.8029V7.17599C15.8594 6.97613 15.781 6.84304 15.6476 6.7098L13.6357 4.90083C13.3691 4.63434 12.9691 4.63434 12.7024 4.90083L7.78445 9.65094C7.49828 9.92995 7.0893 9.91516 6.85112 9.65094L6.18752 8.91585C5.92085 8.64937 5.53518 8.63301 5.26851 8.89949L2.90953 10.9925C2.50953 11.3923 2.7762 12.1251 3.3762 12.1251L14.5143 12.1369ZM4.7143 5.85325C5.50328 5.85325 6.14287 5.21411 6.14287 4.42568C6.14287 3.63725 5.50328 2.9981 4.7143 2.9981C3.92532 2.9981 3.28573 3.63725 3.28573 4.42568C3.28573 5.21411 3.92532 5.85325 4.7143 5.85325Z" fill="#C6C6C6"/>
</svg>
