<svg width="24" height="24" viewBox="0 0 24 24" fill="none" xmlns="http://www.w3.org/2000/svg">
<path fill-rule="evenodd" clip-rule="evenodd" d="M7 5C6.44772 5 6 5.44772 6 6L6 18C6 18.5523 6.44772 19 7 19H14C14.5523 19 15 18.5523 15 18V17H17V18C17 19.6569 15.6569 21 14 21H7C5.34315 21 4 19.6569 4 18L4 6C4 4.34315 5.34315 3 7 3L14 3C15.6569 3 17 4.34315 17 6V7H15V6C15 5.44772 14.5523 5 14 5L7 5ZM11 12C11 11.4477 11.4477 11 12 11L16 11V9.20711C16 8.76165 16.5386 8.53857 16.8536 8.85355L19.6464 11.6464C19.8417 11.8417 19.8417 12.1583 19.6464 12.3536L16.8536 15.1464C16.5386 15.4614 16 15.2383 16 14.7929V13H12C11.4477 13 11 12.5523 11 12Z" fill="#9E9E9E"/>
</svg>
