<svg width="24" height="24" viewBox="0 0 24 24" fill="none" xmlns="http://www.w3.org/2000/svg">
<path fill-rule="evenodd" clip-rule="evenodd" d="M18 11.002C18.5523 11.002 19 11.4497 19 12.002V20.002C19 20.5542 18.5523 21.002 18 21.002C17.4477 21.002 17 20.5542 17 20.002V12.002C17 11.4497 17.4477 11.002 18 11.002ZM11 15.002C11 14.4497 10.5523 14.002 10 14.002C9.44772 14.002 9 14.4497 9 15.002V20.002C9 20.5542 9.44772 21.002 10 21.002C10.5523 21.002 11 20.5542 11 20.002V15.002ZM7 18.002C7 17.4497 6.55228 17.002 6 17.002C5.44772 17.002 5 17.4497 5 18.002V20.002C5 20.5542 5.44772 21.002 6 21.002C6.55228 21.002 7 20.5542 7 20.002V18.002ZM15 16.002C15 15.4497 14.5523 15.002 14 15.002C13.4477 15.002 13 15.4497 13 16.002V20.002C13 20.5542 13.4477 21.002 14 21.002C14.5523 21.002 15 20.5542 15 20.002V16.002Z" fill="#1B1B1B"/>
<path fill-rule="evenodd" clip-rule="evenodd" d="M16 2.002C15.4477 2.002 15 2.44972 15 3.002C15 3.55429 15.4477 4.002 16 4.002H18.5858L12.2644 10.3234L10.8963 7.55851C10.5928 6.94518 9.77677 6.81102 9.29289 7.2949L2.29289 14.2949C1.90237 14.6854 1.90237 15.3186 2.29289 15.7091C2.68342 16.0996 3.31658 16.0996 3.70711 15.7091L9.72174 9.69447L11.0899 12.4594C11.3934 13.0727 12.2094 13.2068 12.6933 12.723L20 5.41622V8.002C20 8.55429 20.4477 9.002 21 9.002C21.5523 9.002 22 8.55429 22 8.002V3.002C22 2.37462 21.4658 1.96778 20.9298 2.002H16Z" fill="#1B1B1B"/>
</svg>
