<svg width="24" height="24" viewBox="0 0 24 24" fill="none" xmlns="http://www.w3.org/2000/svg">
<path d="M5.81116 3C6.40882 3 6.92347 3.28208 7.35511 3.84625C7.78675 4.41042 8.00257 5.22349 8.00257 6.28546V13.0804C8.00257 14.3581 7.78675 15.3039 7.35511 15.9178C6.92347 16.5318 6.38392 16.8387 5.73646 16.8387C5.20521 16.8387 4.67078 16.5493 4.39173 16.3393C4.20569 16.1994 4.07499 16.0905 3.99961 16.0128V19.9509C3.99961 20.233 3.99634 20.4815 3.80542 20.6889C3.6145 20.8963 3.36133 21 3.0459 21C2.71387 21 2.45654 20.8963 2.27393 20.6889C2.09131 20.4815 2 20.2367 2 19.9546V4.05481C2 3.75613 2.10376 3.50723 2.31128 3.30812C2.5188 3.109 2.76367 3.00944 3.0459 3.00944C3.32812 3.00944 3.573 3.109 3.78052 3.30812C3.98804 3.50723 3.99961 3.75244 3.99961 4.05111C4.0286 3.93113 4.15931 3.75499 4.39173 3.52269C4.74036 3.17423 5.21351 3 5.81116 3ZM5.02291 4.82639C4.77388 4.82639 4.54146 4.93425 4.32564 5.14996L4.00191 5.47353V14.3841L4.32564 14.7077C4.54146 14.9234 4.77388 15.0312 5.02291 15.0312C5.30513 15.0312 5.55001 14.8611 5.75753 14.521C5.96505 14.1808 6.00111 13.7133 6.00111 13.0993V6.77732C6.00111 6.16337 5.96505 5.6768 5.75753 5.33664C5.55001 4.99648 5.30513 4.82639 5.02291 4.82639ZM11.0459 16.8699C11.3281 16.8699 11.573 16.7702 11.7805 16.5709C11.988 16.3717 12.002 16.1538 12.002 15.8548V7.58463C12.002 6.88715 12.0767 6.33497 12.2261 5.9281C12.3755 5.52124 12.749 5.3178 13.3467 5.3178C13.7783 5.3178 14.0938 5.20571 14.293 4.98151C14.4922 4.75732 14.6816 4.42305 14.6816 4.04109C14.6816 3.72556 14.4673 3.50766 14.2183 3.32498C13.9692 3.14231 13.7202 3.05097 13.4712 3.05097C12.7407 3.05097 12.251 3.40802 12.002 4.12211V4.07229C12.002 3.78997 11.988 3.51798 11.7805 3.31869C11.573 3.11941 11.3281 3.01977 11.0459 3.01977C10.7637 3.01977 10.5188 3.11941 10.3113 3.31869C10.1038 3.51798 10 3.75877 10 4.04109V15.8236C10 16.1226 10.1038 16.3717 10.3113 16.5709C10.5188 16.7702 10.7637 16.8699 11.0459 16.8699ZM19 16.8699C19.832 16.8699 20.54 16.5668 21.124 15.9606C21.708 15.3545 22 14.6196 22 13.7561V6.13355C22 5.27 21.708 4.53514 21.124 3.92899C20.54 3.32285 19.832 3.01977 19 3.01977C18.168 3.01977 17.46 3.32285 16.876 3.92899C16.292 4.53514 16 5.27 16 6.13355V13.7561C16 14.6196 16.292 15.3545 16.876 15.9606C17.46 16.5668 18.168 16.8699 19 16.8699ZM19.021 15.2336C18.7388 15.2336 18.498 15.134 18.2988 14.9347C18.0996 14.7354 18 14.4946 18 14.2123V6.04173C18 5.75941 18.0996 5.51861 18.2988 5.31933C18.498 5.12005 18.7388 5.02041 19.021 5.02041C19.3032 5.02041 19.5481 5.12005 19.7556 5.31933C19.9631 5.51861 20.0669 5.75941 20.0669 6.04173V14.2123C20.0669 14.4946 19.9631 14.7354 19.7556 14.9347C19.5481 15.134 19.3032 15.2336 19.021 15.2336Z" fill="#1B1B1B"/>
</svg>
