<svg width="24" height="24" viewBox="0 0 24 24" fill="none" xmlns="http://www.w3.org/2000/svg">
<path fill-rule="evenodd" clip-rule="evenodd" d="M10 15.002C10.5523 15.002 11 15.4497 11 16.002V21.002C11 21.5542 10.5523 22.002 10 22.002C9.44772 22.002 9 21.5542 9 21.002V16.002C9 15.4497 9.44772 15.002 10 15.002Z" fill="#1B1B1B"/>
<path fill-rule="evenodd" clip-rule="evenodd" d="M6 18.002C6.55228 18.002 7 18.4497 7 19.002V21.002C7 21.5542 6.55228 22.002 6 22.002C5.44772 22.002 5 21.5542 5 21.002V19.002C5 18.4497 5.44772 18.002 6 18.002Z" fill="#1B1B1B"/>
<path fill-rule="evenodd" clip-rule="evenodd" d="M16 2.002C15.4477 2.002 15 2.44972 15 3.002C15 3.55429 15.4477 4.002 16 4.002H18.5858L12.2644 10.3234L10.8963 7.55851C10.5928 6.94518 9.77677 6.81102 9.29289 7.2949L2.29289 14.2949C1.90237 14.6854 1.90237 15.3186 2.29289 15.7091C2.68342 16.0996 3.31658 16.0996 3.70711 15.7091L9.72174 9.69447L11.0899 12.4594C11.3934 13.0727 12.2094 13.2068 12.6933 12.723L20 5.41622V8.002C20 8.55429 20.4477 9.002 21 9.002C21.5523 9.002 22 8.55429 22 8.002V3.002C22 2.37462 21.4658 1.96778 20.9298 2.002H16Z" fill="#1B1B1B"/>
<path fill-rule="evenodd" clip-rule="evenodd" d="M17.5 19C20.0714 19 22 19.7957 22 20.5V21.5005C22 21.7764 21.7107 22 21.3527 22H13.6473C13.2898 22 13 21.7787 13 21.5005V20.5C13 19.7957 14.9286 19 17.5 19ZM17.5 13C18.8833 13 20 14.1167 20 15.5C20 16.8833 18.8833 18 17.5 18C16.1167 18 15 16.8833 15 15.5C15 14.1167 16.1167 13 17.5 13Z" fill="#1B1B1B"/>
</svg>
