<svg width="24" height="24" viewBox="0 0 24 24" fill="none" xmlns="http://www.w3.org/2000/svg">
<path fill-rule="evenodd" clip-rule="evenodd" d="M12 20C16.4183 20 20 16.4183 20 12C20 7.58172 16.4183 4 12 4C7.58172 4 4 7.58172 4 12C4 16.4183 7.58172 20 12 20ZM12 22C17.5228 22 22 17.5228 22 12C22 6.47715 17.5228 2 12 2C6.47715 2 2 6.47715 2 12C2 17.5228 6.47715 22 12 22Z" fill="#1B1B1B"/>
<path d="M12 6C12.5523 6 13 6.44772 13 7V7.17657C13.6654 7.41511 14.2269 7.88059 14.5839 8.48178C14.589 8.49005 14.5939 8.4984 14.5986 8.50683C14.6059 8.51929 14.613 8.5318 14.6201 8.54437L14.6192 8.54489C14.6891 8.6814 14.7285 8.8361 14.7285 9C14.7285 9.55228 14.2808 10 13.7285 10C13.3757 10 13.0656 9.81732 12.8876 9.5414L12.8853 9.54271C12.7159 9.22363 12.376 9 11.9826 9C11.4381 9 11 9.44349 11 9.96544C11 10.4084 11.3015 10.7946 11.7313 10.902L12.7538 11.1577C14.0739 11.4877 15 12.6738 15 14.0346C15 15.3359 14.1555 16.4301 13 16.8337V17C13 17.5523 12.5523 18 12 18C11.4477 18 11 17.5523 11 17V16.8234C10.3493 16.5902 9.79799 16.1399 9.44003 15.5579L9.44224 15.5565C9.33548 15.3974 9.27319 15.206 9.27319 15C9.27319 14.4477 9.72091 14 10.2732 14C10.6541 14 10.9853 14.213 11.1542 14.5264C11.3338 14.8084 11.6529 15 12.0174 15C12.5619 15 13 14.5565 13 14.0346C13 13.5916 12.6985 13.2054 12.2687 13.098L11.2462 12.8423C9.9261 12.5123 9 11.3262 9 9.96544C9 8.66411 9.84454 7.56991 11 7.16635V7C11 6.44772 11.4477 6 12 6Z" fill="#1B1B1B"/>
</svg>
