<svg width="24" height="24" viewBox="0 0 24 24" fill="none" xmlns="http://www.w3.org/2000/svg">
<path d="M7 11.5V4.5C7 4.25146 7.20502 4 7.5 4H16.5C16.847 4 17 4.30638 17 4.5V11.6L19 10V4.47863C19 2.96675 17.5861 2 16 2H8C6.41387 2 5 2.96675 5 4.47863V10L7 11.5Z" fill="#1B1B1B"/>
<path d="M10 6H14C14.5523 6 15 6.44772 15 7C15 7.55228 14.5523 8 14 8H10C9.44772 8 9 7.55228 9 7C9 6.44772 9.44772 6 10 6Z" fill="#1B1B1B"/>
<path d="M13 10H11C10.4477 10 10 10.4477 10 11C10 11.5523 10.4477 12 11 12H13C13.5523 12 14 11.5523 14 11C14 10.4477 13.5523 10 13 10Z" fill="#1B1B1B"/>
<path fill-rule="evenodd" clip-rule="evenodd" d="M2 8.71429C2 7.14838 2.9339 6 4.70905 6H5V8H4.8C4.34755 8 4 8.331 4 8.71429V9.01885L11.9771 15.6737L20 9.13046V8.71429C20 8.331 19.6524 8 19.2 8H19V6H19.2C21.1007 6 22 7.13577 22 8.71429V19.2857C22 20.796 20.7358 22 19.2 22H4.8C3.26422 22 2 20.796 2 19.2857V8.71429ZM20 11.6981L12.7071 17.646C12.5041 17.849 12.2354 17.9465 11.9694 17.9384C11.7034 17.9465 11.4348 17.849 11.2318 17.646L4 11.6129V19.2857C4 19.669 4.34755 20 4.8 20H19.2C19.6524 20 20 19.669 20 19.2857V11.6981Z" fill="#1B1B1B"/>
</svg>
