<svg width="24" height="24" viewBox="0 0 24 24" fill="none" xmlns="http://www.w3.org/2000/svg">
<path fill-rule="evenodd" clip-rule="evenodd" d="M21.9507 18.5391L22 12.5876L21.9999 12.5719L21.9995 12.5532C21.999 12.1958 21.8381 11.5829 21.7577 11.3211C21.5408 10.4258 20.6921 9.85241 19.8702 10.0333L15.3133 11.1474C14.6434 11.295 14.1684 11.9154 14.1595 12.6564L14.1594 12.6658L14.1269 17.4491L13.8806 17.3801C13.7157 17.3339 13.5467 17.3051 13.3758 17.2943C12.0726 17.2118 11.0089 18.1953 11.0001 19.4929C10.9912 20.7924 12.0435 21.9126 13.3486 21.9952C14.6518 22.0776 15.7155 21.0942 15.7243 19.7974L15.7274 19.7411L15.7253 19.7566L15.7245 19.7701L15.7556 15.2004L15.9515 15.2047C16.0662 15.2072 16.1806 15.1961 16.2887 15.1723L20.3747 14.1736L20.3571 16.2961L20.111 16.2268C19.9453 16.1801 19.7753 16.1511 19.6035 16.1402C18.3003 16.0578 17.2365 17.0412 17.2277 18.3389C17.2189 19.6384 18.2712 20.7586 19.5763 20.8411C20.8795 20.9236 21.9432 19.9401 21.952 18.6438L21.9519 18.5948L21.9518 18.5928L21.9507 18.5391ZM15.782 13.2335C15.7738 13.1922 15.7697 13.1503 15.77 13.1086C15.7714 12.9017 15.8774 12.7127 16.0508 12.6643L19.9284 11.6109C20.144 11.5508 20.329 11.7308 20.3773 11.9723C20.427 12.2202 20.3195 12.4826 20.1085 12.5414L16.231 13.5949C16.0153 13.655 15.8303 13.475 15.782 13.2335ZM13.3524 20.7016C13.9444 20.7391 14.4278 20.2945 14.4318 19.7101C14.4357 19.1275 13.9617 18.6252 13.3716 18.5879C12.7796 18.5504 12.2962 18.995 12.2923 19.5794C12.2883 20.162 12.7623 20.6643 13.3524 20.7016ZM19.5802 19.5476C18.9901 19.5102 18.5161 19.0079 18.52 18.4254C18.524 17.841 19.0074 17.3964 19.5994 17.4338C20.1895 17.4712 20.6635 17.9735 20.6595 18.5561C20.6556 19.1404 20.1722 19.585 19.5802 19.5476Z" fill="#1B1B1B"/>
<path d="M19.5454 5.70405C19.6322 5.81224 19.717 5.92252 19.7998 6.03485C20.1294 6.4819 20.043 7.11819 19.607 7.45603C19.1709 7.79388 18.5503 7.70536 18.2207 7.25831C18.1263 7.13024 18.0286 7.00551 17.9277 6.8842C16.1579 4.75549 13.4225 3.68138 10.6596 4.13C6.34081 4.83127 3.39424 8.98905 4.07827 13.4167C4.45021 15.8242 5.83502 17.8867 7.83661 19.1146C8.30563 19.4023 8.45833 20.0254 8.17766 20.5062C7.897 20.9871 7.28926 21.1436 6.82024 20.8559C4.32073 19.3225 2.58794 16.7417 2.12329 13.7341C1.26825 8.19958 4.95147 3.00235 10.35 2.12577C13.8612 1.55564 17.3387 2.95424 19.5454 5.70405Z" fill="#1B1B1B"/>
<path d="M11.7352 9.03387C11.9759 8.97688 12.2199 8.94653 12.4638 8.94271C13.0103 8.93414 13.4602 9.38139 13.4685 9.94168C13.4769 10.502 13.0406 10.9631 12.4941 10.9717C12.3897 10.9733 12.2848 10.9864 12.1804 11.0111C11.3816 11.2001 10.8835 12.0173 11.0679 12.8363C11.163 13.2584 11.4227 13.6092 11.7835 13.8187C12.2591 14.0948 12.4264 14.7139 12.1571 15.2015C11.8878 15.6891 11.2839 15.8606 10.8083 15.5845C9.96968 15.0977 9.36045 14.2748 9.1393 13.2928C8.70896 11.3818 9.87118 9.47505 11.7352 9.03387Z" fill="#1B1B1B"/>
</svg>
