<svg width="24" height="24" viewBox="0 0 24 24" fill="none" xmlns="http://www.w3.org/2000/svg">
<path fill-rule="evenodd" clip-rule="evenodd" d="M15.1537 3.08066L15.0455 5.07773C14.3455 7.03362 9.34548 7.03362 8.64548 5.07773L8.53728 3.08066L10.0261 3L10.4792 4.26605C10.51 4.28425 10.5559 4.30818 10.6213 4.33586C10.9011 4.45416 11.3378 4.54465 11.8455 4.54465C12.3531 4.54465 12.7899 4.45416 13.0696 4.33586C13.1351 4.30818 13.1809 4.28425 13.2117 4.26605L13.6649 3L15.1537 3.08066ZM13.2654 4.22846C13.2657 4.22857 13.2631 4.23127 13.2568 4.23619C13.262 4.23081 13.2652 4.22835 13.2654 4.22846ZM10.4255 4.22846C10.4258 4.22835 10.4289 4.23081 10.4342 4.23619C10.4279 4.23127 10.4253 4.22857 10.4255 4.22846ZM4.34548 10.2248C4.34548 10.2248 4.84548 9.40126 5.14548 8.57773C5.2482 8.29575 5.30403 7.97756 5.36113 7.65208C5.47079 7.02702 5.58517 6.37512 6.04548 5.90126C6.74548 5.18068 8.64548 5.07773 8.64548 5.07773C8.53728 3.08066 8.53764 3.08064 8.53728 3.08066L8.53412 3.08084L8.53024 3.08106L8.52034 3.08164L8.49223 3.08341C8.46991 3.08488 8.44043 3.08697 8.40459 3.08981C8.33309 3.09547 8.23532 3.1042 8.11781 3.1172C7.88562 3.14288 7.56239 3.18672 7.20467 3.26036C6.85338 3.33269 6.42613 3.44234 6.00219 3.61247C5.60041 3.7737 5.06147 4.04389 4.61092 4.50769C3.85478 5.28607 3.60914 6.21392 3.48819 6.78979C3.45081 6.96772 3.40981 7.20004 3.37974 7.37037C3.36699 7.44258 3.35622 7.50365 3.34851 7.5447C3.30991 7.75049 3.28367 7.84545 3.26628 7.89317C3.15963 8.18594 3.00505 8.50891 2.86305 8.77877C2.79466 8.90874 2.73449 9.01641 2.69257 9.08964C2.67171 9.12607 2.65566 9.15347 2.64573 9.17029L2.63566 9.18722C2.63528 9.18785 2.63499 9.18834 2.63478 9.18868L2 10.2342L2.64429 11.2764L4.34548 10.2248ZM5.79833 11.1068C4.75514 10.8875 4.34548 10.2248 4.34548 10.2248C2.64429 11.2764 2.64496 11.2775 2.64563 11.2786L2.64699 11.2808L2.64979 11.2853L2.65565 11.2946L2.66847 11.3146C2.6775 11.3286 2.68753 11.3438 2.69858 11.3601C2.72067 11.3926 2.74692 11.4298 2.77753 11.4707C2.83865 11.5525 2.91789 11.6503 3.01699 11.7573C3.21486 11.971 3.4963 12.2262 3.87434 12.4621C4.25605 12.7002 4.71151 12.9029 5.24005 13.0308C5.24969 13.2704 5.25315 13.5542 5.24594 13.8875C5.22163 15.0138 5.17265 16.1246 5.12949 16.9568C5.10795 17.372 5.08796 17.716 5.07341 17.9554C5.06614 18.075 5.06022 18.1685 5.05616 18.2315L5.05152 18.3028L5.05009 18.3244L4.9392 19.9653L6.52677 20.3917L7.04548 18.4601C6.52677 20.3917 6.5265 20.3916 6.52677 20.3917L6.53259 20.3932L6.5418 20.3956L6.57019 20.4031C6.59348 20.4091 6.62546 20.4173 6.66559 20.4273C6.74582 20.4473 6.85885 20.4746 7.00052 20.5068C7.28344 20.5711 7.68291 20.6554 8.16516 20.7393C9.12099 20.9056 10.4426 21.0777 11.8455 21.0777C13.2484 21.0777 14.57 20.9056 15.5258 20.7393C16.008 20.6554 16.4075 20.5711 16.6904 20.5068C16.8321 20.4746 16.9451 20.4473 17.0254 20.4273C17.0655 20.4173 17.0975 20.4091 17.1208 20.4031L17.1492 20.3956L17.1584 20.3932L17.163 20.392C17.1633 20.3919 17.1642 20.3917 16.6455 18.4601L17.1642 20.3917L18.7518 19.9653L18.6409 18.3253L18.6394 18.3028L18.6348 18.2315C18.6307 18.1685 18.6248 18.075 18.6175 17.9554C18.603 17.716 18.583 17.372 18.5615 16.9568C18.5183 16.1246 18.4693 15.0138 18.445 13.8875C18.4378 13.5542 18.4413 13.2704 18.4509 13.0308C18.9794 12.9029 19.4349 12.7002 19.8166 12.4621C20.1947 12.2262 20.4761 11.971 20.674 11.7573C20.7731 11.6503 20.8523 11.5525 20.9134 11.4707C20.944 11.4298 20.9703 11.3926 20.9924 11.3601C21.0034 11.3438 21.0135 11.3286 21.0225 11.3146L21.0353 11.2946L21.0412 11.2853L21.044 11.2808L21.0453 11.2786C21.046 11.2775 21.0467 11.2764 19.3455 10.2248L21.0467 11.2764L21.691 10.2342L21.0557 9.18788L21.0551 9.18684L21.0452 9.17029C21.0353 9.15347 21.0192 9.12607 20.9984 9.08964C20.9565 9.01641 20.8963 8.90874 20.8279 8.77877C20.6859 8.50891 20.5313 8.18594 20.4247 7.89317C20.4073 7.84545 20.381 7.75049 20.3424 7.5447C20.3347 7.50365 20.324 7.44258 20.3112 7.37037C20.2812 7.20005 20.2401 6.96772 20.2028 6.78979C20.0818 6.21392 19.8362 5.28607 19.08 4.50769C18.6295 4.04389 18.0905 3.7737 17.6888 3.61247C17.2648 3.44234 16.8376 3.33269 16.4863 3.26036C16.1286 3.18672 15.8053 3.14288 15.5731 3.1172C15.4556 3.1042 15.3579 3.09547 15.2864 3.08981C15.2505 3.08697 15.221 3.08488 15.1987 3.08341L15.1706 3.08164L15.1607 3.08106L15.1568 3.08084L15.1552 3.08074C15.1548 3.08073 15.1537 3.08066 15.0455 5.07773C15.0455 5.07773 16.9455 5.18068 17.6455 5.90126C18.1058 6.37512 18.2202 7.02702 18.3298 7.65208C18.3869 7.97756 18.4428 8.29575 18.5455 8.57773C18.8455 9.40126 19.3455 10.2248 19.3455 10.2248C19.3455 10.2248 18.9358 10.8875 17.8926 11.1068C17.7921 11.1279 17.6856 11.1449 17.5731 11.1568C17.3271 11.1829 17.0519 11.1845 16.7455 11.1513C16.7455 11.1513 16.3989 11.7741 16.4455 13.9307C16.4953 16.2374 16.6455 18.4601 16.6455 18.4601C16.6455 18.4601 14.3455 19.0777 11.8455 19.0777C9.34548 19.0777 7.04548 18.4601 7.04548 18.4601C7.04548 18.4601 7.19568 16.2374 7.24548 13.9307C7.29208 11.7741 6.94548 11.1513 6.94548 11.1513C6.63909 11.1845 6.3639 11.1829 6.11782 11.1568C6.00531 11.1449 5.89888 11.1279 5.79833 11.1068Z" fill="#1B1B1B"/>
<path d="M9.3457 11.5776C9.3457 10.7492 10.0173 10.0776 10.8457 10.0776H12.8457C13.6741 10.0776 14.3457 10.7492 14.3457 11.5776C14.3457 12.4061 13.6741 13.0776 12.8457 13.0776H10.8457C10.0173 13.0776 9.3457 12.4061 9.3457 11.5776Z" fill="#1B1B1B"/>
</svg>
