<svg width="24" height="24" viewBox="0 0 24 24" fill="none" xmlns="http://www.w3.org/2000/svg">
<path fill-rule="evenodd" clip-rule="evenodd" d="M3 6C3 3.79086 4.79086 2 7 2H17C19.2091 2 21 3.79086 21 6V18C21 20.2091 19.2091 22 17 22H7C4.79086 22 3 20.2091 3 18V6ZM7 4C5.89543 4 5 4.89543 5 6V18C5 19.1046 5.89543 20 7 20H17C18.1046 20 19 19.1046 19 18V6C19 4.89543 18.1046 4 17 4H7Z" fill="#1B1B1B"/>
<path fill-rule="evenodd" clip-rule="evenodd" d="M7 9C7.55228 9 8 8.55228 8 8C8 7.44772 7.55228 7 7 7C6.44772 7 6 7.44772 6 8C6 8.55228 6.44772 9 7 9ZM17.25 7H9.75C9.33579 7 9 7.44772 9 8C9 8.55228 9.33579 9 9.75 9H17.25C17.6642 9 18 8.55228 18 8C18 7.44772 17.6642 7 17.25 7ZM8 12C8 12.5523 7.55228 13 7 13C6.44772 13 6 12.5523 6 12C6 11.4477 6.44772 11 7 11C7.55228 11 8 11.4477 8 12ZM7 17C7.55228 17 8 16.5523 8 16C8 15.4477 7.55228 15 7 15C6.44772 15 6 15.4477 6 16C6 16.5523 6.44772 17 7 17ZM9.75 11H17.25C17.6642 11 18 11.4477 18 12C18 12.5523 17.6642 13 17.25 13H9.75C9.33579 13 9 12.5523 9 12C9 11.4477 9.33579 11 9.75 11ZM17.25 15H9.75C9.33579 15 9 15.4477 9 16C9 16.5523 9.33579 17 9.75 17H17.25C17.6642 17 18 16.5523 18 16C18 15.4477 17.6642 15 17.25 15Z" fill="#1B1B1B"/>
</svg>
