<svg width="24" height="24" viewBox="0 0 24 24" fill="none" xmlns="http://www.w3.org/2000/svg">
<path d="M15.2929 8.29289C15.6834 7.90237 16.3166 7.90237 16.7071 8.29289C17.0676 8.65338 17.0953 9.22061 16.7903 9.6129L16.7071 9.70711L11.7071 14.7071C11.3466 15.0676 10.7794 15.0953 10.3871 14.7903L10.2929 14.7071L7.29289 11.7071C6.90237 11.3166 6.90237 10.6834 7.29289 10.2929C7.65338 9.93241 8.22061 9.90468 8.6129 10.2097L8.70711 10.2929L11 12.585L15.2929 8.29289Z" fill="#1B1B1B"/>
<path d="M12 22.9901C11.8916 22.9883 11.7839 22.9729 11.68 22.9444C5.89339 21.1857 1.99197 16.2327 2.00137 10.6569V4.70508C1.97798 4.29536 2.25596 3.92156 2.68128 3.79083L11.68 1.04807C11.8876 0.983975 12.1124 0.983975 12.32 1.04807L21.3187 3.79083C21.744 3.92156 22.022 4.29536 21.9986 4.70508V10.6569C22.0297 16.2495 18.1241 21.2262 12.32 22.9901C12.2138 23.0033 12.1062 23.0033 12 22.9901ZM4.00109 5.36334V10.6569C3.99659 15.3323 7.19428 19.5098 12 21.1068C16.8057 19.5098 20.0034 15.3323 19.9989 10.6569V5.36334L12 2.92229L4.00109 5.36334Z" fill="#1B1B1B"/>
</svg>
