<svg width="24" height="24" viewBox="0 0 24 24" fill="none" xmlns="http://www.w3.org/2000/svg">
<rect x="7" y="15" width="4.3272" height="2" rx="1" fill="#1B1B1B"/>
<rect x="7" y="11" width="8" height="2" rx="1" fill="#1B1B1B"/>
<rect x="7" y="7" width="10" height="2" rx="1" fill="#1B1B1B"/>
<path fill-rule="evenodd" clip-rule="evenodd" d="M4.23259 3.13041C5.12865 2.229 6.35054 2 7.36025 2H17.045C18.3154 2 19.5084 2.61024 20.2519 3.64033C20.7383 4.31415 21 5.12405 21 5.95506V12.9797C21 13.532 20.5523 13.9797 20 13.9797C19.4477 13.9797 19 13.532 19 12.9797V5.95506C19 5.54428 18.8706 5.14393 18.6302 4.81085C18.2627 4.30165 17.6729 4 17.045 4H7.36025C6.59326 4 6.00753 4.18176 5.65101 4.54041C5.22205 4.97193 5 5.66927 5 6.49031V18.0483C5 18.4544 5.12923 18.8501 5.369 19.1779C5.72211 19.6607 6.28069 19.9507 6.87877 19.9615L11.0184 20.0002C11.5706 20.0102 12.01 20.466 12 21.0182C11.99 21.5704 11.5342 22.0099 10.982 21.9998L6.84238 21.9612C5.61921 21.939 4.47683 21.346 3.75465 20.3585C3.2643 19.688 3 18.8789 3 18.0483V6.49031C3 5.3725 3.29467 4.07395 4.23259 3.13041Z" fill="#1B1B1B"/>
<path fill-rule="evenodd" clip-rule="evenodd" d="M16.9995 13C16.4472 13 15.9995 13.4477 15.9995 14V17H12.9995C12.4472 17 11.9995 17.4477 11.9995 18C11.9995 18.5523 12.4472 19 12.9995 19H15.9995V22C15.9995 22.5523 16.4472 23 16.9995 23C17.5518 23 17.9995 22.5523 17.9995 22V19H20.9995C21.5518 19 21.9995 18.5523 21.9995 18C21.9995 17.4477 21.5518 17 20.9995 17H17.9995V14C17.9995 13.4477 17.5518 13 16.9995 13Z" fill="#1B1B1B"/>
</svg>
