<svg width="24" height="24" viewBox="0 0 24 24" fill="none" xmlns="http://www.w3.org/2000/svg">
<path fill-rule="evenodd" clip-rule="evenodd" d="M17.2817 14.3042L13.5858 18.0002C13.2107 18.3753 13 18.884 13 19.4144L13 20.9002C13 21.5077 13.4925 22.0002 14.1 22.0002H15.586C16.1165 22.0002 16.6252 21.7895 17.0003 21.4144L22.5013 15.913C23.1651 15.2491 23.1651 14.1728 22.5013 13.5089L21.4912 12.4988C20.8273 11.8349 19.7509 11.8349 19.087 12.4988L17.3043 14.2816C17.3004 14.2853 17.2967 14.2891 17.2929 14.2928C17.2891 14.2966 17.2854 14.3004 17.2817 14.3042ZM19.4143 15L20.2891 14.1252L20.8749 14.711L20.0001 15.5858L19.4143 15ZM18.0001 16.4142L15 19.4144L15 20.0002H15.586L18.5859 17.0001L18.0001 16.4142Z" fill="#1B1B1B"/>
<path fill-rule="evenodd" clip-rule="evenodd" d="M2 6C2 3.79086 3.79086 2 6 2H18C20.2091 2 22 3.79086 22 6V9C22 9.55229 21.5523 10 21 10C20.4477 10 20 9.55229 20 9V6C20 4.89543 19.1046 4 18 4H6C4.89543 4 4 4.89543 4 6V18C4 19.1046 4.89543 20 6 20H10C10.5523 20 11 20.4477 11 21C11 21.5523 10.5523 22 10 22H6C3.79086 22 2 20.2091 2 18V6Z" fill="#1B1B1B"/>
<path d="M8 7C7.44772 7 7 7.44772 7 8C7 8.55228 7.44772 9 8 9H11V16C11 16.5523 11.4477 17 12 17C12.5523 17 13 16.5523 13 16V9H16C16.5523 9 17 8.55228 17 8C17 7.44772 16.5523 7 16 7H8Z" fill="#1B1B1B"/>
</svg>
