<svg width="24" height="24" viewBox="0 0 24 24" fill="none" xmlns="http://www.w3.org/2000/svg">
<path fill-rule="evenodd" clip-rule="evenodd" d="M4 5H20C20.5259 5 21 5.44772 21 6C21 6.55228 20.5259 7 20 7H4C3.47405 7 3 6.55228 3 6C3 5.44772 3.47405 5 4 5ZM4 11H15C15.515 11 16 11.4477 16 12C16 12.5523 15.515 13 15 13H4C3.48502 13 3 12.5523 3 12C3 11.4477 3.48502 11 4 11ZM4 17H10C10.5523 17 11 17.4477 11 18C11 18.5523 10.5523 19 10 19H4C3.44772 19 3 18.5523 3 18C3 17.4477 3.44772 17 4 17Z" fill="#1B1B1B"/>
<path fill-rule="evenodd" clip-rule="evenodd" d="M20 16.8C20 16.9105 20.0895 17 20.2 17H23C23.5523 17 24 17.4477 24 18C24 18.5523 23.5523 19 23 19H20.2C20.0895 19 20 19.0895 20 19.2V22C20 22.5523 19.5523 23 19 23C18.4477 23 18 22.5523 18 22V19.2C18 19.0895 17.9105 19 17.8 19H15C14.4477 19 14 18.5523 14 18C14 17.4477 14.4477 17 15 17H17.8C17.9105 17 18 16.9105 18 16.8V14C18 13.4477 18.4477 13 19 13C19.5523 13 20 13.4477 20 14V16.8Z" fill="#1B1B1B"/>
</svg>
