<svg width="32" height="32" viewBox="0 0 32 32" fill="none" xmlns="http://www.w3.org/2000/svg">
<path fill-rule="evenodd" clip-rule="evenodd" d="M16 14.3846C16 13.6199 16.6199 13 17.3846 13H24.6154C25.3801 13 26 13.6199 26 14.3846V16.6154C26 17.3801 25.3801 18 24.6154 18H17.3846C16.6199 18 16 17.3801 16 16.6154V14.3846Z" fill="#C6C6C6"/>
<path fill-rule="evenodd" clip-rule="evenodd" d="M16 22.3846C16 21.6199 16.6199 21 17.3846 21H24.6154C25.3801 21 26 21.6199 26 22.3846V24.6154C26 25.3801 25.3801 26 24.6154 26H17.3846C16.6199 26 16 25.3801 16 24.6154V22.3846Z" fill="#C6C6C6"/>
<path fill-rule="evenodd" clip-rule="evenodd" d="M6 7.38461C6 6.61991 6.50894 6 7.13675 6L24.8632 6.00002C25.4911 6.00002 26 6.61994 26 7.38464V8.61539C26 9.38009 25.4911 10 24.8632 10L7.13675 9.99998C6.50894 9.99998 6 9.38006 6 8.61536V7.38461Z" fill="#C6C6C6"/>
<path fill-rule="evenodd" clip-rule="evenodd" d="M6 14.3835C6 13.6188 6.61991 12.9988 7.38461 12.9988L11.6154 12.9988C12.3801 12.9988 13 13.6187 13 14.3834V24.6153C13 25.38 12.3801 25.9999 11.6154 25.9999L7.38461 26C6.61991 26 6 25.3801 6 24.6154V14.3835Z" fill="#C6C6C6"/>
<path fill-rule="evenodd" clip-rule="evenodd" d="M24 3H8C5.23858 3 3 5.23858 3 8V24C3 26.7614 5.23858 29 8 29H24C26.7614 29 29 26.7614 29 24V8C29 5.23858 26.7614 3 24 3ZM8 0C3.58172 0 0 3.58172 0 8V24C0 28.4183 3.58172 32 8 32H24C28.4183 32 32 28.4183 32 24V8C32 3.58172 28.4183 0 24 0H8Z" fill="#C6C6C6"/>
</svg>
