<svg width="24" height="24" viewBox="0 0 24 24" fill="none" xmlns="http://www.w3.org/2000/svg">
<path fill-rule="evenodd" clip-rule="evenodd" d="M18.5737 3.99968L13.9168 3.99968C13.3645 3.99969 12.9168 3.5521 12.9168 2.99996C12.9168 2.44783 13.3645 2.00025 13.9168 2.00024L20.9879 2.00024C21.5402 2.00024 21.9879 2.44783 21.9879 2.99996V10.069C21.9879 10.6212 21.5402 11.0688 20.9879 11.0688C20.4356 11.0688 19.9879 10.6212 19.9879 10.069V5.4135L13.3458 11.9975C12.9553 12.3879 12.3221 12.3879 11.9316 11.9975C11.541 11.6071 11.541 10.9741 11.9316 10.5837L18.5737 3.99968Z" fill="#1B1B1B"/>
<path fill-rule="evenodd" clip-rule="evenodd" d="M6 4.0053C4.89543 4.0053 4 4.90048 4 6.00474L4 18.0014C4 19.1056 4.89543 20.0008 6 20.0008L18 20.0008C19.1046 20.0008 20 19.1056 20 18.0014V15C20 14.4479 20.4477 14.0003 21 14.0003C21.5523 14.0003 22 14.4479 22 15V18.0014C22 20.2099 20.2091 22.0002 18 22.0002L6 22.0002C3.79086 22.0002 2 20.2099 2 18.0014L2 6.00474C2 3.79622 3.79086 2.00586 6 2.00586L9 2.00586C9.55228 2.00586 10 2.45345 10 3.00558C10 3.55771 9.55228 4.0053 9 4.0053L6 4.0053Z" fill="#1B1B1B"/>
</svg>
