<svg width="16" height="16" viewBox="0 0 16 16" fill="none" xmlns="http://www.w3.org/2000/svg">
<path d="M5.35475 2.09419C6.05174 1.39382 6.99751 1 7.98406 1C8.97061 1 9.91637 1.39382 10.6134 2.09419C11.3103 2.79449 11.7014 3.74389 11.7014 4.73342C11.7014 4.94082 11.6195 5.14013 11.4729 5.28741C11.3263 5.43473 11.127 5.51785 10.9188 5.51785C10.7107 5.51785 10.5114 5.43473 10.3647 5.28741C10.2182 5.14013 10.1362 4.94082 10.1362 4.73342C10.1362 4.15872 9.90898 3.60795 9.50515 3.20215C9.10138 2.79643 8.55421 2.56886 7.98406 2.56886C7.41391 2.56886 6.86674 2.79643 6.46297 3.20215C6.05913 3.60795 5.83188 4.15873 5.83188 4.73342C5.83188 4.94082 5.74995 5.14013 5.60338 5.28741C5.45676 5.43473 5.25746 5.51785 5.04928 5.51785C4.84109 5.51785 4.64179 5.43473 4.49517 5.28741C4.3486 5.14013 4.26667 4.94082 4.26667 4.73342C4.26667 3.74389 4.65782 2.79449 5.35475 2.09419Z" fill="#5E5E5E"/>
<path d="M7.97492 8.46121C8.23526 8.46098 8.48829 8.54772 8.69421 8.70778C8.90013 8.86784 9.04724 9.09214 9.11243 9.34541C9.17763 9.59867 9.15718 9.86653 9.05432 10.1068C8.95147 10.3472 8.77205 10.5463 8.54425 10.673C8.55599 10.7201 8.56187 10.7673 8.56187 10.8204V11.4102C8.56187 11.5666 8.50006 11.7166 8.38999 11.8273C8.27991 11.9379 8.13059 12 7.97492 12C7.81925 12 7.66993 11.9379 7.55985 11.8273C7.44977 11.7166 7.38796 11.5666 7.38796 11.4102V10.8204C7.38796 10.7673 7.39385 10.7201 7.40559 10.673C7.17779 10.5463 6.99837 10.3472 6.89551 10.1068C6.79265 9.86653 6.77221 9.59867 6.8374 9.34541C6.9026 9.09214 7.0497 8.86784 7.25562 8.70778C7.46155 8.54772 7.71458 8.46098 7.97492 8.46121Z" fill="#5E5E5E"/>
<path fill-rule="evenodd" clip-rule="evenodd" d="M4.47826 5.78331C3.82056 5.78331 3.19006 6.04586 2.72539 6.51277C2.26077 6.97965 2 7.61258 2 8.27226V10.7417C2 11.8706 2.44628 12.9536 3.24113 13.7523C4.03602 14.551 5.11442 15 6.23913 15H9.76087C10.8856 15 11.964 14.551 12.7589 13.7523C13.5537 12.9536 14 11.8706 14 10.7417V8.27226C14 7.61258 13.7392 6.97965 13.2746 6.51277C12.8099 6.04586 12.1794 5.78331 11.5217 5.78331H4.47826ZM3.74086 7.52945C3.93665 7.33271 4.20193 7.22242 4.47826 7.22242H11.5217C11.7981 7.22242 12.0633 7.33271 12.2591 7.52945C12.455 7.72623 12.5652 7.9934 12.5652 8.27226V10.7417C12.5652 11.4898 12.2695 12.207 11.7434 12.7356C11.2174 13.2642 10.5042 13.5609 9.76087 13.5609H6.23913C5.49579 13.5609 4.78262 13.2642 4.2566 12.7356C3.73054 12.207 3.43478 11.4898 3.43478 10.7417V8.27226C3.43478 7.9934 3.54503 7.72623 3.74086 7.52945Z" fill="#5E5E5E"/>
</svg>
