<svg width="16" height="16" viewBox="0 0 16 16" fill="none" xmlns="http://www.w3.org/2000/svg">
<path d="M4.25 4.25659C4.25 2.18552 5.92893 0.506592 8 0.506592C10.0711 0.506592 11.75 2.18552 11.75 4.25659C11.75 4.67081 11.4142 5.00659 11 5.00659C10.5858 5.00659 10.25 4.67081 10.25 4.25659C10.25 3.01395 9.24264 2.00659 8 2.00659C6.75736 2.00659 5.75 3.01395 5.75 4.25659C5.75 4.67081 5.41421 5.00659 5 5.00659C4.58579 5.00659 4.25 4.67081 4.25 4.25659Z" fill="#1B1B1B"/>
<path d="M8.91831 8.81993C8.65541 8.61652 8.33237 8.5063 8 8.50659C7.66763 8.5063 7.34458 8.61652 7.08169 8.81993C6.81879 9.02333 6.63099 9.30838 6.54775 9.63022C6.46452 9.95207 6.49062 10.2925 6.62194 10.5979C6.75325 10.9032 6.98232 11.1563 7.27314 11.3173C7.25816 11.3772 7.25064 11.4372 7.25064 11.5046V12.2542C7.25064 12.4529 7.32956 12.6436 7.47009 12.7841C7.61062 12.9247 7.80126 13.0037 8 13.0037C8.19874 13.0037 8.38938 12.9247 8.52991 12.7841C8.67044 12.6436 8.74936 12.4529 8.74936 12.2542V11.5046C8.74936 11.4372 8.74184 11.3772 8.72686 11.3173C9.01768 11.1563 9.24675 10.9032 9.37806 10.5979C9.50938 10.2925 9.53548 9.95207 9.45225 9.63022C9.36901 9.30838 9.18121 9.02333 8.91831 8.81993Z" fill="#1B1B1B"/>
<path fill-rule="evenodd" clip-rule="evenodd" d="M3.5 6.00659H12.5C13.8807 6.00659 15 7.12588 15 8.50659V10.5066C15 13.268 12.7614 15.5066 10 15.5066H6C3.23858 15.5066 1 13.268 1 10.5066V8.50659C1 7.12588 2.11929 6.00659 3.5 6.00659ZM3.5 7.50659C2.94772 7.50659 2.5 7.95431 2.5 8.50659V10.5066C2.5 12.4396 4.067 14.0066 6 14.0066H10C11.933 14.0066 13.5 12.4396 13.5 10.5066V8.50659C13.5 7.95431 13.0523 7.50659 12.5 7.50659H3.5Z" fill="#1B1B1B"/>
</svg>
