<svg width="24" height="25" viewBox="0 0 24 25" fill="none" xmlns="http://www.w3.org/2000/svg">
<path fill-rule="evenodd" clip-rule="evenodd" d="M14.3973 4.77488C14.3973 3.73916 14.7305 2.78529 15.4523 2.21729L16.6891 3.78901C16.6082 3.85266 16.3973 4.11659 16.3973 4.77488C16.3973 5.63384 16.3393 6.49424 16.053 7.16267C15.9 7.51965 15.663 7.86882 15.2948 8.12271C14.922 8.37977 14.4971 8.48246 14.0685 8.48246C13.5649 8.48246 13.3398 8.54168 13.2336 8.60138C13.2329 8.60176 13.2322 8.60216 13.2315 8.60256C13.1931 8.62406 13.092 8.68062 13.0191 9.02004C12.964 9.27665 13.036 9.47585 13.1436 9.59941C13.247 9.71822 13.418 9.80856 13.6711 9.78116C14.7853 9.66054 15.5923 9.66183 16.2209 9.78158C16.9008 9.91111 17.329 10.171 17.6805 10.4588C18.0862 10.7911 18.4687 11.2806 18.6454 12.0951C18.8102 12.8549 18.7864 13.853 18.5261 15.2162C18.3646 16.062 18.7384 16.7371 19.2886 17.2808C19.5609 17.5499 19.8521 17.7591 20.0789 17.9017C20.1909 17.9721 20.2835 18.024 20.3452 18.0569C20.3759 18.0733 20.3986 18.0849 20.4119 18.0914L20.4244 18.0976L20.4227 18.0968C20.4223 18.0966 20.4214 18.0962 20.0002 19.0031C19.579 19.9101 19.5787 19.91 19.5783 19.9098L19.5757 19.9086L19.5712 19.9065L19.5591 19.9007C19.5496 19.8961 19.5373 19.8902 19.5224 19.8828C19.4927 19.868 19.4525 19.8475 19.4034 19.8213C19.3055 19.7691 19.1713 19.6935 19.0141 19.5947C18.7027 19.3988 18.2866 19.1024 17.8828 18.7033C17.0805 17.9105 16.2261 16.5983 16.5616 14.8411C16.7983 13.6013 16.7745 12.9048 16.6908 12.519C16.619 12.188 16.5045 12.0809 16.4133 12.0062C16.2678 11.887 16.1383 11.8018 15.8466 11.7462C15.5036 11.6809 14.925 11.6571 13.8864 11.7695C12.02 11.9716 10.6905 10.339 11.0636 8.60038C11.2278 7.83526 11.6033 7.22359 12.2533 6.8581C12.8338 6.53165 13.5031 6.48246 14.0685 6.48246C14.1183 6.48246 14.1465 6.47752 14.1601 6.47396C14.1698 6.46209 14.1896 6.43341 14.2146 6.37507C14.3253 6.11652 14.3973 5.62313 14.3973 4.77488ZM20.4244 18.0976C20.4249 18.0978 20.4252 18.098 20.4244 18.0976V18.0976ZM2.43405 11.5945C2.43428 11.5944 2.43451 11.5942 2.00018 10.6935C1.56584 9.79274 1.5661 9.79262 1.56637 9.79249L1.56837 9.79153L1.57197 9.7898L1.58233 9.7849L1.61532 9.76957C1.64264 9.75703 1.68049 9.73997 1.72779 9.71945C1.82222 9.67848 1.95519 9.62331 2.11772 9.56255C2.43978 9.44215 2.89247 9.29427 3.40017 9.1943C4.32405 9.01239 5.85508 8.90796 6.88304 10.0121C7.75333 10.9468 7.94924 12.0296 7.9394 12.828C7.93449 13.2269 7.87892 13.5688 7.82437 13.8129C7.7969 13.9359 7.76912 14.0365 7.74687 14.1101C7.73572 14.147 7.7259 14.1772 7.7181 14.2004L7.70799 14.2297L7.70422 14.2403L7.70268 14.2445C7.70261 14.2447 7.70218 14.2459 7.70204 14.2463L7.69677 14.2615C7.69139 14.2773 7.68257 14.3041 7.67148 14.3403C7.64921 14.4131 7.61842 14.5223 7.58827 14.6571C7.52663 14.9326 7.47445 15.2849 7.48822 15.6371C7.5021 15.9919 7.5803 16.2874 7.72427 16.5084C7.85371 16.707 8.08282 16.9195 8.55933 17.0483C10.3634 17.5359 11.2323 18.8519 11.6301 19.9489C11.8275 20.4931 11.9181 21.0018 11.9604 21.3715C11.9817 21.558 11.9912 21.7134 11.9953 21.8258C11.9974 21.8821 11.9981 21.928 11.9982 21.9619C11.9983 21.9789 11.9982 21.993 11.9981 22.0039L11.9979 22.0179L11.9978 22.0231L11.9978 22.0252C11.9978 22.0256 11.9977 22.027 10.998 22.0028C9.99831 21.9785 9.9983 21.979 9.99829 21.9793L9.99825 21.9813L9.99822 21.983L9.99823 21.9705C9.99817 21.9567 9.99786 21.9323 9.99663 21.8986C9.99417 21.831 9.98808 21.7275 9.97335 21.5987C9.94353 21.3378 9.88019 20.9899 9.74993 20.6307C9.49249 19.9208 9.01159 19.2423 8.03746 18.979C7.12488 18.7323 6.46755 18.2431 6.04868 17.6003C5.64436 16.9799 5.5124 16.2945 5.48975 15.7152C5.467 15.1334 5.55193 14.5985 5.63653 14.2204C5.6795 14.0283 5.72412 13.8692 5.75897 13.7552C5.77645 13.6981 5.79161 13.6519 5.80309 13.6181C5.80883 13.6012 5.81366 13.5874 5.81742 13.5768L5.82223 13.5634C5.82234 13.5631 5.82267 13.5622 5.82283 13.5617C5.82428 13.5574 5.82768 13.5471 5.83245 13.5313C5.84204 13.4996 5.85688 13.4467 5.87251 13.3768C5.90415 13.2351 5.93672 13.0339 5.93955 12.8034C5.94522 12.343 5.8351 11.8216 5.41925 11.3749C5.16108 11.0976 4.61663 10.9932 3.78655 11.1566C3.41728 11.2293 3.07338 11.3405 2.81809 11.4359C2.69194 11.4831 2.59105 11.525 2.52379 11.5542C2.49024 11.5688 2.46529 11.58 2.45001 11.5871L2.43405 11.5945ZM2.43255 11.5952C2.43222 11.5953 2.43254 11.5952 2.43255 11.5952V11.5952ZM6.76321 13.9019C7.70139 14.248 7.70189 14.2467 7.70204 14.2463L7.7016 14.2475L6.76321 13.9019ZM9.99822 21.983C9.9982 21.9838 9.99821 21.9837 9.99822 21.983V21.983Z" fill="#1B1B1B"/>
<path fill-rule="evenodd" clip-rule="evenodd" d="M12 3.00293C7.02941 3.00293 2.99998 7.03237 2.99998 12.0029C2.99998 16.9735 7.02941 21.0029 12 21.0029C16.9705 21.0029 21 16.9735 21 12.0029C21 7.03237 16.9705 3.00293 12 3.00293ZM0.999977 12.0029C0.999977 5.9278 5.92484 1.00293 12 1.00293C18.0751 1.00293 23 5.9278 23 12.0029C23 18.0781 18.0751 23.0029 12 23.0029C5.92484 23.0029 0.999977 18.0781 0.999977 12.0029Z" fill="#1B1B1B"/>
</svg>
