<svg width="24" height="25" viewBox="0 0 24 25" fill="none" xmlns="http://www.w3.org/2000/svg">
<path fill-rule="evenodd" clip-rule="evenodd" d="M6 11.0029C5.46956 11.0029 4.96084 11.2136 4.58577 11.5887C4.21071 11.9638 4 12.4725 4 13.0029V16.0029C4 17.329 4.52676 18.6008 5.46443 19.5385C6.40211 20.4761 7.67391 21.0029 9 21.0029H15C16.3261 21.0029 17.5979 20.4761 18.5356 19.5385C19.4732 18.6008 20 17.329 20 16.0029V13.0029C20 12.4725 19.7893 11.9638 19.4142 11.5887C19.0392 11.2136 18.5304 11.0029 18 11.0029H6ZM3.17156 10.1745C3.92171 9.42435 4.93914 9.00293 6 9.00293H18C19.0609 9.00293 20.0783 9.42435 20.8284 10.1745C21.5786 10.9247 22 11.9421 22 13.0029V16.0029C22 17.8594 21.2625 19.6399 19.9498 20.9527C18.637 22.2654 16.8565 23.0029 15 23.0029H9C7.14349 23.0029 5.36298 22.2654 4.05022 20.9527C2.73745 19.6399 2 17.8594 2 16.0029V13.0029C2 11.9421 2.4214 10.9247 3.17156 10.1745Z" fill="#1B1B1B"/>
<path fill-rule="evenodd" clip-rule="evenodd" d="M12 13.0029C12.4435 13.0025 12.8746 13.1496 13.2255 13.421C13.5763 13.6924 13.8269 14.0727 13.938 14.5021C14.0491 14.9315 14.0142 15.3856 13.839 15.7931C13.6638 16.2006 13.3581 16.5382 12.97 16.7529C12.99 16.8329 13 16.9129 13 17.0029V18.0029C13 18.2681 12.8947 18.5225 12.7072 18.71C12.5196 18.8976 12.2652 19.0029 12 19.0029C11.7348 19.0029 11.4804 18.8976 11.2928 18.71C11.1053 18.5225 11 18.2681 11 18.0029V17.0029C11 16.9129 11.01 16.8329 11.03 16.7529C10.6419 16.5382 10.3362 16.2006 10.161 15.7931C9.98577 15.3856 9.95094 14.9315 10.062 14.5021C10.1731 14.0727 10.4237 13.6924 10.7745 13.421C11.1254 13.1496 11.5565 13.0025 12 13.0029ZM18 7.00293C18 5.41163 17.3679 3.88551 16.2427 2.76029C15.1175 1.63507 13.5913 1.00293 12 1.00293C10.4087 1.00293 8.88254 1.63507 7.75732 2.76029C6.63211 3.88551 6 5.41163 6 7.00293C6 7.26815 6.10531 7.5225 6.29285 7.71004C6.48038 7.89757 6.73478 8.00293 7 8.00293C7.26522 8.00293 7.51962 7.89757 7.70715 7.71004C7.89469 7.5225 8 7.26815 8 7.00293C8 5.94206 8.42149 4.92465 9.17163 4.1745C9.92178 3.42436 10.9391 3.00293 12 3.00293C13.0609 3.00293 14.0782 3.42436 14.8284 4.1745C15.5785 4.92465 16 5.94206 16 7.00293C16 7.26815 16.1053 7.5225 16.2928 7.71004C16.4804 7.89757 16.7348 8.00293 17 8.00293C17.2652 8.00293 17.5196 7.89757 17.7072 7.71004C17.8947 7.5225 18 7.26815 18 7.00293Z" fill="#1B1B1B"/>
</svg>
