<svg width="24" height="24" viewBox="0 0 24 24" fill="none" xmlns="http://www.w3.org/2000/svg">
<path fill-rule="evenodd" clip-rule="evenodd" d="M2.46169 12.5C4.49217 15.1924 7.98843 17 12 17C16.0116 17 19.5078 15.1924 21.5383 12.5C19.5078 9.80765 16.0116 8 12 8C7.98843 8 4.49217 9.80765 2.46169 12.5ZM0.351882 11.9624C2.70139 8.37318 7.05839 6 12 6C16.9416 6 21.2986 8.37318 23.6481 11.9624L24 12.5L23.6481 13.0376C21.2986 16.6268 16.9416 19 12 19C7.05839 19 2.70139 16.6268 0.351882 13.0376L0 12.5L0.351882 11.9624Z" fill="#1B1B1B"/>
<path fill-rule="evenodd" clip-rule="evenodd" d="M12.5 11C11.6716 11 11 11.6716 11 12.5C11 13.3284 11.6716 14 12.5 14C13.3284 14 14 13.3284 14 12.5C14 11.6716 13.3284 11 12.5 11ZM9 12.5C9 10.567 10.567 9 12.5 9C14.433 9 16 10.567 16 12.5C16 14.433 14.433 16 12.5 16C10.567 16 9 14.433 9 12.5Z" fill="#1B1B1B"/>
</svg>
