<svg width="24" height="24" viewBox="0 0 24 24" fill="none" xmlns="http://www.w3.org/2000/svg">
<path fill-rule="evenodd" clip-rule="evenodd"
    d="M12 21C16.9706 21 21 16.9706 21 12C21 7.02944 16.9706 3 12 3C7.02944 3 3 7.02944 3 12C3 16.9706 7.02944 21 12 21ZM12 23C18.0751 23 23 18.0751 23 12C23 5.92487 18.0751 1 12 1C5.92487 1 1 5.92487 1 12C1 18.0751 5.92487 23 12 23Z"
    fill="#1B1B1B"/>
<path fill-rule="evenodd" clip-rule="evenodd" d="M7.57393 20C7.19555 19.4147 6.99256 18.7686 6.99256 18.137C6.99256 16.1839 8.93367 14.0913 12 14.0913C15.0663 14.0913 17.0074 16.1839 17.0074 18.137C17.0074 18.7686 16.8045 19.4147 16.4261 20C17.4152 19.4358 18.2882 18.6884 19 17.8034C18.8583 15.5401 17.284 13.6066 15.0483 12.6707C15.6454 11.9641 16.006 11.0474 16.006 10.0457C16.006 7.81131 14.2124 6 12 6C9.78757 6 7.99405 7.81131 7.99405 10.0457C7.99405 11.0474 8.35456 11.9641 8.95169 12.6707C6.71598 13.6066 5.14166 15.5401 5 17.8034C5.71178 18.6884 6.58482 19.4358 7.57393 20ZM14.003 10.0457C14.003 11.1628 13.1062 12.0685 12 12.0685C10.8938 12.0685 9.99702 11.1628 9.99702 10.0457C9.99702 8.92849 10.8938 8.02283 12 8.02283C13.1062 8.02283 14.003 8.92849 14.003 10.0457Z" fill="#1B1B1B"/>
</svg>
