<svg width="24" height="24" viewBox="0 0 24 24" fill="none" xmlns="http://www.w3.org/2000/svg">
<path d="M17.1143 19.2542C16.4841 18.6273 18.6358 16.4868 19.266 17.1137L22.4935 20.3244C23.1237 20.9514 23.1889 21.9029 22.5587 22.5298C21.9285 23.1567 20.972 23.1567 20.3418 22.5298L17.1143 19.2542Z" fill="#1B1B1B"/>
<path fill-rule="evenodd" clip-rule="evenodd" d="M2 11C2 15.9706 6.02944 20 11 20C15.9706 20 20 15.9706 20 11C20 6.02944 15.9706 2 11 2C6.02944 2 2 6.02944 2 11ZM18 11C18 14.866 14.866 18 11 18C7.13401 18 4 14.866 4 11C4 7.13401 7.13401 4 11 4C14.866 4 18 7.13401 18 11Z" fill="#1B1B1B"/>
</svg>
