<svg width="24" height="24" viewBox="0 0 24 24" fill="none" xmlns="http://www.w3.org/2000/svg">
<path fill-rule="evenodd" clip-rule="evenodd" d="M19.0711 4.92869C17.1957 3.05333 14.6522 1.99976 12 1.99976C9.34784 1.99976 6.80431 3.05333 4.92894 4.92869C3.05358 6.80405 2 9.34759 2 11.9998C2 14.6519 3.05358 17.1955 4.92894 19.0708C6.80431 20.9462 9.34784 21.9998 12 21.9998C14.6522 21.9998 17.1957 20.9462 19.0711 19.0708C20.9464 17.1955 22 14.6519 22 11.9998C22 9.34759 20.9464 6.80405 19.0711 4.92869ZM16.7474 9.66413C17.1143 9.25135 17.0771 8.61928 16.6644 8.25236C16.2516 7.88544 15.6195 7.92262 15.2526 8.3354L10.6667 13.4946L8.74741 11.3354C8.38049 10.9226 7.74842 10.8854 7.33564 11.2524C6.92286 11.6193 6.88568 12.2513 7.25259 12.6641L9.91926 15.6641C10.109 15.8776 10.381 15.9998 10.6667 15.9998C10.9523 15.9998 11.2243 15.8776 11.4141 15.6641L16.7474 9.66413Z" fill="#FF7700"/>
</svg>
