<svg width="24" height="24" viewBox="0 0 24 24" fill="none" xmlns="http://www.w3.org/2000/svg">
<path fill-rule="evenodd" clip-rule="evenodd" d="M16.9061 7.41356L7.90615 11.4136L7.09387 9.58594L16.0939 5.58594L16.9061 7.41356Z" fill="#1B1B1B"/>
<path fill-rule="evenodd" clip-rule="evenodd" d="M16.0144 18.3739L7.0144 13.3739L7.98569 11.6256L16.9857 16.6256L16.0144 18.3739Z" fill="#1B1B1B"/>
<path fill-rule="evenodd" clip-rule="evenodd" d="M18.5 6.99963C19.3284 6.99963 20 6.32806 20 5.49963C20 4.67121 19.3284 3.99963 18.5 3.99963C17.6716 3.99963 17 4.67121 17 5.49963C17 6.32806 17.6716 6.99963 18.5 6.99963ZM18.5 8.99963C20.433 8.99963 22 7.43263 22 5.49963C22 3.56664 20.433 1.99963 18.5 1.99963C16.567 1.99963 15 3.56664 15 5.49963C15 7.43263 16.567 8.99963 18.5 8.99963Z" fill="#1B1B1B"/>
<path fill-rule="evenodd" clip-rule="evenodd" d="M5.5 12.9996C6.32843 12.9996 7 12.3281 7 11.4996C7 10.6712 6.32843 9.99963 5.5 9.99963C4.67157 9.99963 4 10.6712 4 11.4996C4 12.3281 4.67157 12.9996 5.5 12.9996ZM5.5 14.9996C7.433 14.9996 9 13.4326 9 11.4996C9 9.56664 7.433 7.99963 5.5 7.99963C3.567 7.99963 2 9.56664 2 11.4996C2 13.4326 3.567 14.9996 5.5 14.9996Z" fill="#1B1B1B"/>
<path fill-rule="evenodd" clip-rule="evenodd" d="M18.5 19.9995C19.3284 19.9995 20 19.3279 20 18.4995C20 17.6711 19.3284 16.9995 18.5 16.9995C17.6716 16.9995 17 17.6711 17 18.4995C17 19.3279 17.6716 19.9995 18.5 19.9995ZM18.5 21.9995C20.433 21.9995 22 20.4325 22 18.4995C22 16.5665 20.433 14.9995 18.5 14.9995C16.567 14.9995 15 16.5665 15 18.4995C15 20.4325 16.567 21.9995 18.5 21.9995Z" fill="#1B1B1B"/>
</svg>
