<svg width="24" height="24" viewBox="0 0 24 24" fill="none" xmlns="http://www.w3.org/2000/svg">
<path fill-rule="evenodd" clip-rule="evenodd" d="M13.0002 2C15.6523 2 18.1959 3.05357 20.0713 4.92893C21.9466 6.8043 23.0002 9.34784 23.0002 12C23.0002 14.6522 21.9466 17.1957 20.0713 19.0711C18.1959 20.9464 15.6523 22 13.0002 22C12.735 22 12.4806 21.8946 12.2931 21.7071C12.1056 21.5196 12.0002 21.2652 12.0002 21C12.0002 20.7348 12.1056 20.4804 12.2931 20.2929C12.4806 20.1054 12.735 20 13.0002 20C14.5641 19.9997 16.0935 19.541 17.3995 18.6807C18.7055 17.8204 19.7307 16.5962 20.3483 15.1595C20.9659 13.7227 21.1489 12.1365 20.8746 10.5968C20.6003 9.05722 19.8808 7.63175 18.805 6.49671C17.7292 5.36166 16.3443 4.56682 14.8216 4.21046C13.2988 3.85411 11.705 3.95187 10.2373 4.49167C8.76952 5.03146 7.49218 5.98961 6.56317 7.24764C5.63416 8.50566 5.09425 10.0084 5.01019 11.57L5.29019 11.29C5.38343 11.1968 5.49411 11.1228 5.61594 11.0723C5.73776 11.0219 5.86832 10.9959 6.00018 10.9959C6.13204 10.9959 6.26261 11.0219 6.38443 11.0723C6.50625 11.1228 6.61694 11.1968 6.71017 11.29C6.80341 11.3832 6.8774 11.4939 6.92786 11.6158C6.97832 11.7376 7.00427 11.8681 7.00427 12C7.00427 12.1319 6.97832 12.2624 6.92786 12.3842C6.8774 12.5061 6.80341 12.6168 6.71017 12.71L4.71017 14.71C4.65271 14.7642 4.58891 14.8112 4.52017 14.85L4.48019 14.88C4.33232 14.9584 4.16756 14.9996 4.00018 15C3.9088 14.9988 3.818 14.9854 3.73019 14.96L3.69019 14.95C3.63102 14.9333 3.57396 14.9098 3.52017 14.88L3.48019 14.85C3.41227 14.8099 3.3486 14.763 3.29019 14.71L1.29019 12.71C1.19695 12.6168 1.12297 12.5061 1.07251 12.3842C1.02205 12.2624 0.996094 12.1319 0.996094 12C0.996094 11.8681 1.02205 11.7376 1.07251 11.6158C1.12297 11.4939 1.19695 11.3832 1.29019 11.29C1.4785 11.1017 1.73388 10.9959 2.00018 10.9959C2.13204 10.9959 2.26261 11.0219 2.38443 11.0723C2.50625 11.1228 2.61694 11.1968 2.71017 11.29L3.01019 11.59C3.11601 9.01127 4.21473 6.5733 6.0766 4.78598C7.93847 2.99866 10.4193 2.00041 13.0002 2Z" fill="white"/>
<path fill-rule="evenodd" clip-rule="evenodd" d="M17.6 14.2C17.8122 14.3591 17.9525 14.596 17.99 14.8586C18.0275 15.1211 17.9591 15.3878 17.8 15.6C17.6409 15.8122 17.404 15.9524 17.1414 15.9899C16.8789 16.0275 16.6122 15.9591 16.4 15.8L12.4 12.8C12.2758 12.7069 12.175 12.5861 12.1056 12.4472C12.0361 12.3084 12 12.1552 12 12V7C12 6.73478 12.1054 6.48043 12.2929 6.29289C12.4804 6.10536 12.7348 6 13 6C13.2652 6 13.5196 6.10536 13.7071 6.29289C13.8946 6.48043 14 6.73478 14 7V11.5L17.6 14.2Z" fill="white"/>
</svg>
