<svg width="24" height="24" viewBox="0 0 24 24" fill="none" xmlns="http://www.w3.org/2000/svg">
<path fill-rule="evenodd" clip-rule="evenodd" d="M23 14.988C23 12.2685 20.9121 10 18.25 10C17.2524 10 16.2926 10.3617 15.5 10.9387C14.7074 10.3617 13.7476 10 12.75 10C10.0879 10 8 12.2685 8 14.988C8 17.7669 10.0848 20.2227 13.9432 22.565C14.8998 23.1458 16.1002 23.1458 17.0568 22.565C20.9152 20.2227 23 17.7669 23 14.988ZM10 14.988C10 13.3378 11.2312 12 12.75 12C13.6866 12 14.5139 12.5682 15.0105 13.2374C15.3191 13.6533 15.684 13.6456 15.9974 13.2268C16.4948 12.5622 17.3183 12 18.25 12C19.7688 12 21 13.3378 21 14.988C21 16.8836 19.3396 18.8394 16.0189 20.8554C15.7001 21.049 15.2999 21.049 14.9811 20.8554C11.6604 18.8394 10 16.8836 10 14.988Z" fill="white"/>
<path d="M9 21.9962V22C9 22.5507 8.55358 22.9971 8.00289 22.9971L7.99884 22.9971C7.40405 22.9947 7.07008 22.9916 6.99693 22.9878C6.2162 22.9474 5.65321 22.8031 5.07996 22.4965C4.40549 22.1358 3.86421 21.5945 3.50351 20.92C3.13376 20.2287 3 19.5523 3 18.4908V5.56389C3 4.44914 3.12927 3.77971 3.50351 3.07996C3.86421 2.40549 4.40549 1.86421 5.07996 1.50351C5.77971 1.12927 6.44914 1 7.56389 1H16.4361C17.5509 1 18.2203 1.12927 18.92 1.50351C19.5945 1.86421 20.1358 2.40549 20.4965 3.07996C20.8707 3.77971 21 4.44914 21 5.56389V7C21 7.55228 20.5523 8 20 8C19.4477 8 19 7.55228 19 7V5.56389C19 4.67237 18.9072 4.34908 18.7329 4.02315C18.5586 3.69723 18.3028 3.44144 17.9768 3.26713C17.6509 3.09283 17.3276 3 16.4361 3H7.56389C6.67237 3 6.34908 3.09283 6.02315 3.26713C5.69723 3.44144 5.44144 3.69723 5.26713 4.02315C5.09283 4.34908 5 4.67237 5 5.56389V18.4908C5 19.3167 5.09283 19.6509 5.26713 19.9768C5.44144 20.3028 5.69723 20.5586 6.02315 20.7329C6.27179 20.8658 6.52525 20.9514 6.99813 20.9845C7.06542 20.9892 7.40109 20.9931 8.00515 20.9962C8.55542 20.9991 9 21.4459 9 21.9962Z" fill="white"/>
</svg>
