<svg width="24" height="24" viewBox="0 0 24 24" fill="none" xmlns="http://www.w3.org/2000/svg">
<path fill-rule="evenodd" clip-rule="evenodd" d="M1 6C1 5.44772 1.44995 5 2.00685 5H13.9932C14.5492 5 15 5.44386 15 6C15 6.55228 14.5501 7 13.9932 7H2.00685C1.45078 7 1 6.55614 1 6ZM1 11C1 10.4477 1.44995 10 2.00685 10H13.9932C14.5492 10 15 10.4439 15 11C15 11.5523 14.5501 12 13.9932 12H2.00685C1.45078 12 1 11.5561 1 11ZM1 16C1 15.4477 1.45304 15 1.99703 15H8.00297C8.55361 15 9 15.4439 9 16C9 16.5523 8.54696 17 8.00297 17H1.99703C1.44639 17 1 16.5561 1 16Z" fill="#1B1B1B"/>
<path fill-rule="evenodd" clip-rule="evenodd" d="M19 3.49464C19 2.66755 19.6692 2 20.4998 2H22.5002C23.3319 2 24 2.67057 24 3.50937V5.49063C24 6.32283 23.3296 7 22.5013 7H20.994C20.445 7 20 7.44995 20 8.00685V19C20 20.719 17.9503 22 15.5 22C13.0497 22 11 20.719 11 19C11 17.281 13.0497 16 15.5 16C16.9 16 18.1691 16.4182 19 17.0973V3.49464Z" fill="#1B1B1B"/>
</svg>
