<svg width="24" height="24" viewBox="0 0 24 24" fill="none" xmlns="http://www.w3.org/2000/svg">
<path fill-rule="evenodd" clip-rule="evenodd" d="M19.9617 8.04559C19.8085 8.0166 19.6529 8.00201 19.4969 8.00201H16.9751C17.121 6.25087 16.723 4.86599 15.6024 3.90986C15.2538 3.58904 14.7867 3.31326 14.2695 3.13581C12.9631 2.6881 11.5416 3.38354 11.0936 4.68934C11.0419 4.84015 11.0047 4.99556 10.9825 5.15346C10.9382 5.46976 10.9029 5.72031 10.8767 5.90484C10.6075 7.79982 9.82178 8.94738 8.44518 9.58584C7.56203 9.99556 6.99707 10.8804 6.99707 11.8538V17.502C6.99707 18.8827 8.11636 20.002 9.49707 20.002H18.1724C19.3739 20.002 20.4054 19.1473 20.6288 17.9668L21.9533 10.9668C22.21 9.61016 21.3183 8.30229 19.9617 8.04559ZM15.2011 10.002H19.4969C19.5281 10.002 19.5592 10.0049 19.5899 10.0107C19.8612 10.0621 20.0395 10.3236 19.9882 10.595L18.6637 17.595C18.619 17.8311 18.4127 18.002 18.1724 18.002H9.49707C9.22093 18.002 8.99707 17.7781 8.99707 17.502V11.8538C8.99707 11.6591 9.11007 11.4821 9.28667 11.4002C11.306 10.4636 12.4961 8.72559 12.8568 6.18611C12.8832 6.00019 12.9187 5.74853 12.9632 5.43113C12.9676 5.39956 12.975 5.36848 12.9854 5.33832C13.075 5.07716 13.3593 4.93808 13.6205 5.02759C13.8794 5.1164 14.1073 5.25098 14.3043 5.43132C15.0645 6.07994 15.2015 7.3972 14.7154 9.38311C14.7059 9.42203 14.7011 9.46194 14.7011 9.50201C14.7011 9.77818 14.925 10.0021 15.2011 10.002Z" fill="#1B1B1B"/>
<path d="M3 11.002C3 10.4497 3.44772 10.002 4 10.002V10.002C4.55228 10.002 5 10.4497 5 11.002V19.002C5 19.5542 4.55228 20.002 4 20.002V20.002C3.44772 20.002 3 19.5542 3 19.002V11.002Z" fill="#1B1B1B"/>
</svg>
