<svg width="24" height="24" viewBox="0 0 24 24" fill="none" xmlns="http://www.w3.org/2000/svg">
<path d="M4 12C4 7.58172 7.58172 4 12 4C12.3012 4 12.5982 4.0166 12.8901 4.04887C13.4391 4.10956 13.9333 3.71374 13.9939 3.1648C14.0546 2.61586 13.6588 2.12167 13.1099 2.06098C12.7451 2.02066 12.3748 2 12 2C6.47715 2 2 6.47715 2 12C2 17.5228 6.47715 22 12 22C17.5228 22 22 17.5228 22 12C22 11.6252 21.9793 11.2549 21.939 10.8901C21.8783 10.3412 21.3841 9.94537 20.8352 10.0061C20.2863 10.0667 19.8904 10.5609 19.9511 11.1099C19.9834 11.4018 20 11.6988 20 12C20 16.4183 16.4183 20 12 20C7.58172 20 4 16.4183 4 12Z" fill="white"/>
<path d="M8 12C8 9.79086 9.79086 8 12 8C12.5523 8 13 7.55228 13 7C13 6.44772 12.5523 6 12 6C8.68629 6 6 8.68629 6 12C6 15.3137 8.68629 18 12 18C15.3137 18 18 15.3137 18 12C18 11.4477 17.5523 11 17 11C16.4477 11 16 11.4477 16 12C16 14.2091 14.2091 16 12 16C9.79086 16 8 14.2091 8 12Z" fill="white"/>
<path d="M18 3C18 2.44772 17.5523 2 17 2C16.4477 2 16 2.44772 16 3V6.58579L11.2929 11.2929C10.9024 11.6834 10.9024 12.3166 11.2929 12.7071C11.6834 13.0976 12.3166 13.0976 12.7071 12.7071L17.4142 8H21C21.5523 8 22 7.55228 22 7C22 6.44772 21.5523 6 21 6H19.4142L20.7071 4.70711C21.0976 4.31658 21.0976 3.68342 20.7071 3.29289C20.3166 2.90237 19.6834 2.90237 19.2929 3.29289L18 4.58579V3Z" fill="white"/>
</svg>
