<svg width="10" height="10" viewBox="0 0 10 10" fill="none" xmlns="http://www.w3.org/2000/svg">
<path d="M5.28284 3.30294L8.29289 0.292893C8.68342 -0.0976311 9.31658 -0.0976311 9.70711 0.292893C10.0976 0.683418 10.0976 1.31658 9.70711 1.70711L6.69706 4.71716C6.54085 4.87337 6.54085 5.12663 6.69706 5.28284L9.70711 8.29289C10.0976 8.68342 10.0976 9.31658 9.70711 9.70711C9.31658 10.0976 8.68342 10.0976 8.29289 9.70711L5.28284 6.69706C5.12663 6.54085 4.87337 6.54085 4.71716 6.69706L1.70711 9.70711C1.31658 10.0976 0.683418 10.0976 0.292893 9.70711C-0.0976311 9.31658 -0.0976311 8.68342 0.292893 8.29289L3.30294 5.28284C3.45915 5.12663 3.45915 4.87337 3.30294 4.71716L0.292893 1.70711C-0.0976311 1.31658 -0.0976311 0.683418 0.292893 0.292893C0.683418 -0.0976311 1.31658 -0.0976311 1.70711 0.292893L4.71716 3.30294C4.87337 3.45915 5.12663 3.45915 5.28284 3.30294Z" fill="#1B1B1B"/>
</svg>
