<svg width="16" height="16" viewBox="0 0 16 16" fill="none" xmlns="http://www.w3.org/2000/svg">
<path d="M0.587433 6.58181C-0.19581 7.36506 -0.195811 8.63494 0.587432 9.41819L1.51083 10.3416L1.51083 12.2387C1.51083 13.3463 2.40878 14.2443 3.51645 14.2443H5.41353L6.58181 15.4126C7.36506 16.1958 8.63494 16.1958 9.41819 15.4126L10.5865 14.2443H11.9938C13.1015 14.2443 13.9994 13.3463 13.9994 12.2387V10.8314L15.4126 9.41819C16.1958 8.63494 16.1958 7.36506 15.4126 6.58181L13.9994 5.16865V3.76133C13.9994 2.65366 13.1015 1.75571 11.9938 1.75571L10.5865 1.75571L9.41819 0.587433C8.63495 -0.19581 7.36506 -0.195811 6.58181 0.587432L5.41353 1.75571L3.51645 1.75571C2.40878 1.75571 1.51083 2.65366 1.51083 3.76133L1.51083 5.65842L0.587433 6.58181Z" fill="#0099E3"/>
<path fill-rule="evenodd" clip-rule="evenodd" d="M11.2733 5.21267C11.5918 5.50128 11.6205 5.99846 11.3374 6.32315L7.41712 10.7669C7.2707 10.9348 7.06082 11.0309 6.84042 11.0309C6.62003 11.0309 6.41015 10.9348 6.26373 10.7669L4.20614 8.40714C3.92302 8.08245 3.95171 7.58527 4.27021 7.29666C4.58872 7.00805 5.07642 7.03729 5.35953 7.36198L6.84042 9.06035L10.184 5.27799C10.4671 4.95331 10.9548 4.92406 11.2733 5.21267Z" fill="white"/>
</svg>
