<svg width="16" height="16" viewBox="0 0 16 16" fill="none" xmlns="http://www.w3.org/2000/svg">
<path fill-rule="evenodd" clip-rule="evenodd" d="M2.20033 2.25454C4.04871 2.08485 5.98193 2 8 2C10.0181 2 11.9513 2.08485 13.7997 2.25454C14.8526 2.3512 15.6916 3.1764 15.8057 4.22758C15.9352 5.4203 16 6.67778 16 8C16 9.32222 15.9352 10.5797 15.8057 11.7724C15.6916 12.8236 14.8526 13.6488 13.7997 13.7455C11.9513 13.9152 10.0181 14 8 14C5.98193 14 4.04871 13.9152 2.20033 13.7455C1.1474 13.6488 0.308387 12.8236 0.194253 11.7724C0.0647509 10.5797 0 9.32222 0 8C0 6.67778 0.0647509 5.4203 0.194253 4.22758C0.308387 3.1764 1.1474 2.3512 2.20033 2.25454ZM10.189 7.6385L7.06154 5.86105C6.71835 5.65986 6.44531 5.83416 6.44531 6.24662V9.75325C6.44531 10.1658 6.72121 10.3383 7.06154 10.1388L10.189 8.36107C10.5322 8.15985 10.5293 7.83801 10.189 7.6385Z" fill="#FF7700"/>
</svg>
