<svg width="39" height="65" viewBox="0 0 39 65" fill="none" xmlns="http://www.w3.org/2000/svg">
<path d="M0.5 0C0.632608 0 0.759785 0.0543507 0.853553 0.151096C0.947322 0.247841 1 0.379055 1 0.515873V64.4841C1 64.6209 0.947322 64.7522 0.853553 64.8489C0.759785 64.9456 0.632608 65 0.5 65C0.367392 65 0.240215 64.9456 0.146447 64.8489C0.0526784 64.7522 0 64.6209 0 64.4841V0.515873C0 0.379055 0.0526784 0.247841 0.146447 0.151096C0.240215 0.0543507 0.367392 0 0.5 0ZM2.5 0C2.63261 0 2.75979 0.0543507 2.85355 0.151096C2.94732 0.247841 3 0.379055 3 0.515873V64.4841C3 64.6209 2.94732 64.7522 2.85355 64.8489C2.75979 64.9456 2.63261 65 2.5 65C2.36739 65 2.24021 64.9456 2.14645 64.8489C2.05268 64.7522 2 64.6209 2 64.4841V0.515873C2 0.379055 2.05268 0.247841 2.14645 0.151096C2.24021 0.0543507 2.36739 0 2.5 0ZM9.5 0C9.63261 0 9.75979 0.0543507 9.85355 0.151096C9.94732 0.247841 10 0.379055 10 0.515873V64.4841C10 64.6209 9.94732 64.7522 9.85355 64.8489C9.75979 64.9456 9.63261 65 9.5 65C9.36739 65 9.24021 64.9456 9.14645 64.8489C9.05268 64.7522 9 64.6209 9 64.4841V0.515873C9 0.379055 9.05268 0.247841 9.14645 0.151096C9.24021 0.0543507 9.36739 0 9.5 0ZM11.5 0C11.6326 0 11.7598 0.0543507 11.8536 0.151096C11.9473 0.247841 12 0.379055 12 0.515873V64.4841C12 64.6209 11.9473 64.7522 11.8536 64.8489C11.7598 64.9456 11.6326 65 11.5 65C11.3674 65 11.2402 64.9456 11.1464 64.8489C11.0527 64.7522 11 64.6209 11 64.4841V0.515873C11 0.379055 11.0527 0.247841 11.1464 0.151096C11.2402 0.0543507 11.3674 0 11.5 0ZM18.5 0C18.6326 0 18.7598 0.0543507 18.8536 0.151096C18.9473 0.247841 19 0.379055 19 0.515873V64.4841C19 64.6209 18.9473 64.7522 18.8536 64.8489C18.7598 64.9456 18.6326 65 18.5 65C18.3674 65 18.2402 64.9456 18.1464 64.8489C18.0527 64.7522 18 64.6209 18 64.4841V0.515873C18 0.379055 18.0527 0.247841 18.1464 0.151096C18.2402 0.0543507 18.3674 0 18.5 0ZM20.5 0C20.6326 0 20.7598 0.0543507 20.8536 0.151096C20.9473 0.247841 21 0.379055 21 0.515873V64.4841C21 64.6209 20.9473 64.7522 20.8536 64.8489C20.7598 64.9456 20.6326 65 20.5 65C20.3674 65 20.2402 64.9456 20.1464 64.8489C20.0527 64.7522 20 64.6209 20 64.4841V0.515873C20 0.379055 20.0527 0.247841 20.1464 0.151096C20.2402 0.0543507 20.3674 0 20.5 0ZM27.5 0C27.6326 0 27.7598 0.0543507 27.8536 0.151096C27.9473 0.247841 28 0.379055 28 0.515873V64.4841C28 64.6209 27.9473 64.7522 27.8536 64.8489C27.7598 64.9456 27.6326 65 27.5 65C27.3674 65 27.2402 64.9456 27.1464 64.8489C27.0527 64.7522 27 64.6209 27 64.4841V0.515873C27 0.379055 27.0527 0.247841 27.1464 0.151096C27.2402 0.0543507 27.3674 0 27.5 0ZM29.5 0C29.6326 0 29.7598 0.0543507 29.8536 0.151096C29.9473 0.247841 30 0.379055 30 0.515873V64.4841C30 64.6209 29.9473 64.7522 29.8536 64.8489C29.7598 64.9456 29.6326 65 29.5 65C29.3674 65 29.2402 64.9456 29.1464 64.8489C29.0527 64.7522 29 64.6209 29 64.4841V0.515873C29 0.379055 29.0527 0.247841 29.1464 0.151096C29.2402 0.0543507 29.3674 0 29.5 0ZM36.5 0C36.6326 0 36.7598 0.0543507 36.8536 0.151096C36.9473 0.247841 37 0.379055 37 0.515873V64.4841C37 64.6209 36.9473 64.7522 36.8536 64.8489C36.7598 64.9456 36.6326 65 36.5 65C36.3674 65 36.2402 64.9456 36.1464 64.8489C36.0527 64.7522 36 64.6209 36 64.4841V0.515873C36 0.379055 36.0527 0.247841 36.1464 0.151096C36.2402 0.0543507 36.3674 0 36.5 0ZM38.5 0C38.6326 0 38.7598 0.0543507 38.8536 0.151096C38.9473 0.247841 39 0.379055 39 0.515873V64.4841C39 64.6209 38.9473 64.7522 38.8536 64.8489C38.7598 64.9456 38.6326 65 38.5 65C38.3674 65 38.2402 64.9456 38.1464 64.8489C38.0527 64.7522 38 64.6209 38 64.4841V0.515873C38 0.379055 38.0527 0.247841 38.1464 0.151096C38.2402 0.0543507 38.3674 0 38.5 0Z" fill="#1B1B1B"/>
</svg>
