<svg width="24" height="24" viewBox="0 0 24 24" fill="none" xmlns="http://www.w3.org/2000/svg">
<path fill-rule="evenodd" clip-rule="evenodd" d="M3.3005 3.38181C6.07306 3.12727 8.9729 3 12 3C15.0271 3 17.9269 3.12727 20.6995 3.38181C22.2789 3.5268 23.5374 4.76459 23.7086 6.34137C23.9029 8.13046 24 10.0167 24 12C24 13.9833 23.9029 15.8695 23.7086 17.6586C23.5374 19.2354 22.2789 20.4732 20.6995 20.6182C17.9269 20.8727 15.0271 21 12 21C8.9729 21 6.07306 20.8727 3.3005 20.6182C1.72109 20.4732 0.462581 19.2354 0.291379 17.6586C0.0971264 15.8695 0 13.9833 0 12C0 10.0167 0.0971264 8.13046 0.291379 6.34137C0.46258 4.76459 1.72109 3.5268 3.3005 3.38181ZM15.2835 11.4577L10.5923 8.79157C10.0775 8.48979 9.66797 8.75124 9.66797 9.36994V14.6299C9.66797 15.2488 10.0818 15.5075 10.5923 15.2081L15.2835 12.5416C15.7983 12.2398 15.794 11.757 15.2835 11.4577Z" fill="#C6C6C6"/>
</svg>
